{"glyphs":{"1":{"ha":474,"x_min":32,"x_max":439,"o":"m 439 906 q 410 57 406 483 q 401 29 408 42 q 381 8 394 18 q 343 -6 367 -3 q 292 -9 318 -8 q 244 -4 267 -10 q 206 15 222 1 q 186 58 190 29 q 183 118 183 74 q 185 225 182 163 q 192 365 188 289 q 200 517 196 440 q 201 525 201 519 q 181 531 193 526 q 150 547 169 535 q 108 576 129 561 q 69 606 86 590 q 42 635 51 621 q 36 661 32 649 q 74 717 40 674 q 107 761 89 736 q 144 813 125 786 q 180 861 164 838 q 210 904 196 885 q 239 947 225 926 q 276 960 244 958 q 342 956 307 963 q 407 937 378 950 q 439 906 436 924 z "},"2":{"ha":694,"x_min":40,"x_max":649,"o":"m 619 213 q 635 203 629 213 q 644 183 640 194 q 648 158 647 171 q 649 140 649 146 q 647 88 649 115 q 642 38 646 61 q 629 -1 638 15 q 606 -19 621 -17 q 576 -21 599 -22 q 521 -17 553 -19 q 449 -12 488 -14 q 371 -8 411 -10 q 293 -7 331 -7 q 226 -8 256 -7 q 165 -11 201 -11 q 101 -7 128 -11 q 69 26 81 -3 q 56 93 58 54 q 63 174 54 132 q 88 249 71 217 q 147 331 114 294 q 217 402 181 368 q 290 471 253 436 q 364 546 328 506 q 399 594 379 563 q 428 658 418 626 q 426 722 440 700 q 387 749 413 744 q 331 742 361 754 q 278 704 300 731 q 249 646 258 679 q 253 578 240 613 q 259 562 256 571 q 264 544 263 553 q 238 505 265 525 q 175 476 211 485 q 104 474 139 467 q 56 518 69 482 q 42 617 40 568 q 59 713 44 667 q 101 801 74 760 q 164 875 128 843 q 253 931 203 910 q 358 956 304 951 q 465 946 413 960 q 558 896 517 932 q 611 833 592 868 q 639 758 631 797 q 645 676 647 718 q 633 593 643 635 q 587 482 618 532 q 517 387 556 432 q 434 299 478 342 q 349 213 390 257 q 619 213 483 218 z "},"3":{"ha":639,"x_min":24,"x_max":607,"o":"m 521 526 q 584 409 561 478 q 600 274 607 340 q 569 172 594 222 q 506 81 544 121 q 416 17 467 42 q 307 -7 365 -7 q 233 1 271 -7 q 160 22 196 8 q 94 58 125 36 q 44 110 64 81 q 32 174 24 139 q 65 241 40 213 q 110 288 89 269 q 138 299 121 296 q 169 285 154 301 q 224 238 194 256 q 281 219 253 221 q 335 231 310 217 q 379 279 361 246 q 390 321 389 299 q 382 362 392 343 q 350 394 372 381 q 292 410 328 407 q 288 409 289 408 q 285 410 286 410 l 282 410 q 279 408 281 408 l 274 408 q 265 410 269 410 q 257 414 260 411 q 236 439 242 418 q 230 485 231 460 q 232 534 229 510 q 239 569 235 558 q 253 595 244 585 q 272 606 261 606 q 333 628 307 606 q 371 678 360 650 q 374 730 382 706 q 332 757 367 754 q 281 742 308 760 q 236 689 254 725 q 225 662 229 675 q 204 642 221 649 q 178 636 190 636 q 101 660 138 636 q 51 726 64 683 q 53 778 46 753 q 74 826 60 803 q 133 894 97 865 q 213 941 169 924 q 306 963 257 958 q 406 954 356 967 q 508 897 468 939 q 565 796 549 854 q 570 668 581 738 q 521 526 560 599 z "},"4":{"ha":742,"x_min":40,"x_max":692,"o":"m 692 57 q 682 28 689 42 q 661 7 675 17 q 624 -6 647 -3 q 574 -9 600 -8 q 526 -4 549 -10 q 488 16 504 1 q 467 60 471 31 q 464 122 464 75 q 465 239 464 169 q 273 242 369 239 q 76 249 176 246 q 67 251 72 247 q 58 264 63 254 q 51 293 54 274 q 47 324 50 303 q 42 370 44 346 q 40 416 40 394 q 47 449 40 438 q 75 483 53 458 q 129 543 97 507 q 288 722 210 631 q 442 918 365 814 q 467 948 456 938 q 510 961 479 958 q 583 967 539 964 q 657 963 626 971 q 670 952 664 958 q 678 936 676 946 q 684 871 683 901 q 686 813 685 840 l 692 57 m 354 463 q 413 465 383 464 q 471 465 442 465 q 472 540 471 503 q 476 618 474 578 q 417 540 447 578 q 354 463 386 501 z "},"5":{"ha":682,"x_min":38,"x_max":646,"o":"m 572 549 q 631 421 615 490 q 634 283 646 351 q 587 151 622 214 q 493 44 551 88 q 332 -20 414 -14 q 176 14 250 -26 q 93 78 128 39 q 56 175 58 117 q 69 236 54 207 q 107 282 83 265 q 158 298 131 299 q 213 269 186 297 q 263 226 232 244 q 329 214 293 207 q 422 310 399 225 q 426 359 428 333 q 416 407 425 385 q 389 447 407 429 q 342 471 371 464 q 256 478 301 482 q 175 464 210 475 q 135 463 163 461 q 93 464 108 464 q 65 481 76 465 q 47 517 53 496 q 39 558 40 538 q 43 594 38 579 q 49 648 47 608 q 53 737 51 688 q 55 836 54 786 q 57 919 56 886 q 65 956 58 946 q 83 967 71 965 q 114 965 96 968 q 156 960 132 961 q 348 950 251 953 q 546 953 444 947 q 576 953 563 954 q 594 949 589 951 q 608 935 601 944 q 617 907 614 926 q 619 853 619 882 q 613 798 618 824 q 596 753 607 772 q 568 729 585 733 q 533 726 560 726 q 469 726 507 725 q 203 751 336 731 l 203 667 q 416 656 319 686 q 572 549 513 625 z "},"6":{"ha":771,"x_min":29,"x_max":731,"o":"m 332 643 q 495 640 421 656 q 622 585 569 625 q 703 482 675 544 q 728 339 731 419 q 706 223 725 279 q 653 121 688 167 q 569 42 618 75 q 457 -6 519 8 q 411 -12 433 -10 q 365 -11 389 -14 q 246 18 303 -7 q 144 85 189 43 q 71 183 100 126 q 36 306 42 239 q 45 460 29 381 q 92 617 61 540 q 167 762 124 693 q 257 882 210 831 q 298 923 276 904 q 342 954 319 942 q 367 959 353 961 q 390 947 381 957 q 422 916 406 935 q 450 875 439 897 q 459 855 456 865 q 461 833 463 844 q 442 790 461 810 q 332 643 378 725 m 429 446 q 349 446 385 457 q 291 412 314 435 q 258 357 268 389 q 256 295 249 325 q 288 241 263 265 q 360 207 314 217 q 414 209 388 203 q 461 236 440 215 q 493 292 485 260 q 497 356 501 325 q 476 413 493 388 q 429 446 458 438 z "},"7":{"ha":685,"x_min":28,"x_max":647,"o":"m 643 881 q 646 838 644 863 q 647 791 647 814 q 642 751 646 768 q 631 731 639 733 q 628 722 631 728 q 452 384 525 561 q 338 19 379 207 l 338 18 q 335 13 338 15 q 330 6 332 10 q 322 -4 328 1 q 300 -17 315 -11 q 260 -21 285 -24 q 210 -14 235 -18 q 164 -1 185 -10 q 131 26 143 8 q 119 71 118 43 q 131 128 121 86 q 160 228 140 169 q 206 356 179 288 q 264 490 232 424 q 330 619 296 558 q 393 724 364 679 l 393 726 q 68 731 228 726 q 50 740 58 732 q 37 761 43 747 q 29 799 31 775 q 28 849 28 824 q 33 897 29 875 q 47 935 38 919 q 75 954 57 950 q 111 955 83 956 q 178 952 139 954 q 266 947 218 950 q 363 940 314 943 q 456 935 411 938 q 538 931 501 933 q 615 926 579 928 q 628 922 622 928 q 638 909 633 918 q 643 881 642 900 z "},"8":{"ha":739,"x_min":24,"x_max":701,"o":"m 586 525 q 675 420 649 479 q 698 300 701 361 q 665 181 694 239 q 586 78 635 122 q 473 8 538 33 q 336 -14 408 -18 q 238 6 289 -11 q 144 52 188 22 q 71 125 101 82 q 32 222 40 168 q 57 365 24 301 q 149 479 90 428 q 56 625 74 544 q 65 779 38 706 q 115 860 83 828 q 187 914 147 893 q 273 945 226 935 q 367 958 319 956 q 474 944 421 961 q 571 897 528 928 q 642 824 614 867 q 678 733 671 782 q 665 631 685 685 q 589 526 644 578 q 588 526 588 526 q 586 525 588 525 m 358 793 q 299 771 325 793 q 262 718 272 749 q 263 655 251 688 q 314 600 274 622 q 352 619 332 610 q 388 644 372 629 q 435 708 425 679 q 435 756 444 736 q 405 786 426 776 q 358 793 383 796 m 254 278 q 251 220 243 244 q 279 182 260 196 q 326 165 299 168 q 381 172 354 163 q 435 213 417 185 q 456 274 454 242 q 440 337 457 306 q 388 386 424 368 q 348 376 368 385 q 310 352 328 367 q 277 318 292 338 q 254 278 263 299 z "},"9":{"ha":771,"x_min":24,"x_max":725,"o":"m 422 306 q 259 308 333 293 q 132 364 185 324 q 51 467 79 404 q 26 610 24 529 q 47 726 28 669 q 101 828 67 782 q 185 907 136 874 q 297 954 235 940 q 343 960 321 958 q 389 960 365 963 q 544 915 478 954 q 653 813 611 875 q 710 670 694 750 q 711 506 725 590 q 674 356 700 433 q 612 210 649 279 q 528 88 575 142 q 429 10 482 35 q 358 1 400 -4 q 288 26 322 8 q 238 72 253 44 q 232 111 228 89 q 256 144 236 133 q 301 175 276 157 q 350 215 326 193 q 393 260 374 236 q 422 306 413 283 m 325 503 q 405 503 369 492 q 463 537 440 514 q 496 592 486 560 q 499 653 506 624 q 466 708 492 683 q 394 742 440 732 q 340 740 367 746 q 293 713 314 733 q 261 656 269 689 q 257 592 253 624 q 278 536 261 561 q 325 503 296 511 z "},"\u0000":{"ha":0,"x_min":0,"x_max":0,"o":""},"\r":{"ha":485,"x_min":0,"x_max":0,"o":""}," ":{"ha":485,"x_min":0,"x_max":0,"o":""},"E":{"ha":713,"x_min":40,"x_max":671,"o":"m 608 213 q 660 198 649 213 q 668 139 671 183 q 665 88 667 114 q 657 41 663 63 q 643 4 651 19 q 621 -15 635 -11 q 593 -16 614 -18 q 543 -11 572 -14 q 378 -4 461 -4 q 204 -11 296 -4 q 160 -14 182 -14 q 117 -8 138 -14 q 79 13 96 -1 q 53 54 63 26 q 44 121 47 71 q 40 240 40 171 q 42 610 40 424 q 57 979 43 796 q 85 1027 57 1014 q 147 1040 113 1040 q 265 1045 203 1043 q 391 1049 328 1047 q 515 1050 454 1050 q 631 1050 576 1050 q 639 1046 635 1049 q 654 1028 647 1040 q 666 982 663 1013 q 667 919 669 951 q 656 859 665 886 q 629 824 646 832 q 599 822 622 822 q 545 823 576 822 q 476 826 514 824 q 401 830 438 828 q 330 833 364 832 q 272 835 296 835 l 267 613 l 525 614 q 561 579 551 610 q 570 512 571 549 q 559 444 569 475 q 535 407 549 413 q 498 405 528 404 q 428 407 468 406 q 343 410 388 408 q 264 415 299 413 q 263 308 263 361 q 267 203 264 256 q 346 209 303 207 q 434 213 389 211 q 524 214 479 214 q 608 213 569 214 z "},"F":{"ha":672,"x_min":39,"x_max":639,"o":"m 610 1035 q 625 1024 619 1032 q 635 1002 631 1017 q 638 964 639 988 q 633 913 636 939 q 625 865 631 886 q 610 828 619 843 q 585 810 600 813 q 494 818 563 810 q 422 825 463 821 q 338 833 381 829 q 295 835 317 835 q 254 839 274 836 q 253 726 253 782 q 256 614 254 671 q 531 618 393 631 q 535 617 532 618 q 543 610 538 615 q 551 588 547 601 q 553 550 554 574 q 549 499 551 525 q 542 451 546 472 q 531 414 538 429 q 513 394 524 399 q 490 394 506 394 q 450 397 474 394 q 356 405 403 401 q 261 406 310 408 q 270 234 265 319 q 282 64 275 149 q 275 32 281 47 q 256 8 268 19 q 219 -7 243 -3 q 170 -15 196 -11 q 122 -14 144 -18 q 81 6 99 -10 q 57 53 64 21 q 51 116 54 68 q 44 235 47 164 q 43 614 39 425 q 57 994 47 803 q 61 1014 57 1006 q 72 1028 64 1021 q 96 1039 81 1036 l 97 1039 q 353 1049 226 1050 q 610 1035 481 1049 z "},"G":{"ha":851,"x_min":35,"x_max":811,"o":"m 804 492 q 809 426 807 460 q 810 360 811 393 q 778 213 807 283 q 696 88 750 142 q 588 17 647 39 q 465 -4 528 -4 q 339 17 401 -4 q 224 78 276 39 q 123 185 164 124 q 61 319 82 247 q 38 467 40 390 q 49 618 35 543 q 96 762 64 693 q 175 888 128 831 q 268 969 215 936 q 379 1020 321 1003 q 497 1037 438 1038 q 610 1014 557 1036 q 706 947 664 992 q 774 832 749 901 q 789 760 785 797 q 793 685 793 724 q 781 652 790 667 q 753 635 772 638 q 728 633 743 635 q 697 631 714 632 q 665 631 681 631 q 639 635 650 632 q 608 657 615 639 q 599 701 601 675 q 567 799 599 764 q 492 838 536 833 q 431 829 460 840 q 378 799 403 818 q 334 753 354 779 q 300 699 314 726 q 271 621 281 663 q 258 536 261 579 q 260 444 256 490 q 283 354 264 399 q 310 304 294 329 q 347 259 326 279 q 394 226 368 239 q 451 213 419 214 q 542 245 507 213 q 581 325 578 278 l 392 311 q 378 319 385 313 q 365 339 371 326 q 356 375 358 351 q 348 424 351 399 q 345 470 344 449 q 351 508 346 492 q 371 529 357 524 q 398 533 376 532 q 449 535 419 535 q 516 536 479 536 q 589 536 553 536 q 660 535 625 536 q 722 535 694 535 l 781 535 q 790 531 785 535 q 798 518 794 526 q 804 492 801 510 z "},"H":{"ha":865,"x_min":40,"x_max":829,"o":"m 682 1042 q 727 1036 701 1039 q 776 1027 753 1033 q 814 1011 799 1021 q 828 985 829 1001 q 802 528 804 756 q 818 69 800 300 q 817 60 817 65 q 815 51 815 56 q 813 39 815 46 q 792 15 804 26 q 756 -3 779 4 q 706 -10 732 -7 q 656 -8 679 -12 q 616 12 633 -3 q 592 58 599 26 q 585 105 588 81 q 582 161 583 129 q 580 235 581 193 q 579 335 579 276 q 512 338 551 335 q 429 344 472 340 q 344 351 386 347 q 269 357 303 354 q 267 207 268 282 q 267 57 267 132 q 257 26 265 40 q 235 5 250 15 q 197 -7 221 -6 q 146 -8 172 -8 q 97 -1 119 -8 q 60 23 75 7 q 42 71 44 39 q 41 97 40 79 q 42 140 42 115 q 44 340 42 240 q 51 545 47 440 q 57 761 54 650 q 61 993 60 872 q 65 1015 60 1006 q 78 1031 69 1024 q 107 1039 88 1038 q 151 1042 125 1040 q 200 1041 176 1043 q 240 1031 224 1039 q 258 1006 257 1024 q 266 783 264 893 q 269 563 268 674 l 588 561 l 588 565 q 606 782 594 674 q 631 1003 617 890 q 638 1024 632 1015 q 653 1037 643 1031 q 682 1042 663 1043 z "},"I":{"ha":307,"x_min":36,"x_max":264,"o":"m 264 61 q 254 31 261 44 q 233 9 247 19 q 196 -4 219 -1 q 145 -8 171 -7 q 97 -3 119 -10 q 59 19 75 3 q 39 67 43 35 q 37 131 36 82 q 39 247 38 179 q 43 397 40 315 q 49 563 46 479 q 67 996 56 758 q 69 1018 64 1008 q 82 1033 72 1026 q 111 1040 92 1039 q 156 1041 131 1040 q 206 1039 182 1042 q 246 1028 229 1036 q 263 1003 263 1019 l 264 61 z "},"J":{"ha":763,"x_min":38,"x_max":726,"o":"m 661 997 q 695 839 679 925 q 719 663 711 753 q 724 483 726 574 q 706 313 722 393 q 664 192 692 249 q 594 91 636 135 q 499 21 553 47 q 381 -10 446 -6 q 265 6 318 -12 q 169 60 211 25 q 97 144 126 96 q 54 247 68 192 q 40 345 43 293 q 43 449 38 397 q 63 551 49 501 q 97 643 76 601 q 133 678 110 668 q 181 687 156 688 q 230 677 206 686 q 271 654 254 668 q 293 621 290 639 q 292 583 296 603 q 282 533 288 563 q 272 472 276 504 q 265 408 268 440 q 264 344 263 375 q 299 238 268 271 q 369 208 331 206 q 443 246 407 210 q 494 346 479 282 q 516 500 513 424 q 514 651 519 576 q 497 797 508 725 q 472 940 485 869 q 469 989 465 964 q 499 1024 474 1014 q 541 1037 517 1029 q 589 1046 565 1044 q 635 1035 615 1049 q 661 997 654 1022 z "},"K":{"ha":801,"x_min":44,"x_max":763,"o":"m 665 797 q 563 704 615 750 q 456 611 511 658 q 615 356 540 486 q 749 88 690 226 q 736 49 754 67 q 701 22 718 32 q 656 1 679 11 q 610 -13 632 -8 q 569 -15 588 -18 q 540 3 550 -12 q 526 31 535 11 q 419 259 474 144 q 299 488 364 374 q 290 480 294 483 q 279 472 285 476 q 277 260 278 365 q 269 49 276 154 q 258 17 267 31 q 237 -6 251 4 q 199 -18 222 -15 q 149 -17 175 -18 q 101 -10 124 -17 q 64 14 79 -3 q 44 63 49 31 q 47 126 44 78 q 51 242 49 175 q 65 539 58 389 q 71 857 71 689 l 71 992 q 74 1013 68 1003 q 86 1028 76 1021 q 115 1039 96 1036 q 160 1042 135 1040 q 210 1041 186 1043 q 250 1032 233 1039 q 268 1008 267 1025 q 274 871 271 939 q 278 735 276 803 q 434 886 357 810 q 585 1043 511 963 q 606 1051 593 1049 q 631 1050 617 1053 q 665 1032 646 1047 q 705 1001 685 1017 q 740 967 725 985 q 758 930 754 949 q 751 893 763 911 q 722 857 744 882 q 665 797 700 832 z "},"Z":{"ha":797,"x_min":40,"x_max":754,"o":"m 615 699 q 551 597 583 647 q 489 494 519 547 q 406 353 447 424 q 324 210 364 282 q 515 211 413 213 q 706 203 617 210 q 724 195 717 203 q 736 176 732 188 q 742 152 740 164 q 743 132 743 140 q 740 83 742 108 q 731 35 738 57 q 713 -1 725 14 q 683 -17 701 -15 q 643 -17 672 -19 q 572 -11 614 -14 q 331 4 458 4 q 83 -3 203 4 q 71 0 76 -4 q 59 11 65 3 q 50 39 53 19 q 42 92 44 69 q 40 132 40 115 q 43 162 40 149 q 51 186 46 175 q 137 351 90 271 q 235 510 183 432 q 342 667 288 589 q 450 822 396 744 q 276 821 363 821 q 103 824 190 821 q 83 833 92 826 q 69 853 76 840 q 63 892 63 867 q 61 941 61 915 q 65 989 61 967 q 79 1026 69 1011 q 108 1044 89 1042 q 149 1046 119 1047 q 221 1042 179 1044 q 463 1034 343 1033 q 706 1033 582 1035 q 729 1033 721 1033 q 742 1031 738 1033 q 747 1023 746 1029 q 750 1003 747 1017 q 753 967 751 988 q 754 928 754 947 q 752 896 754 910 q 746 878 750 882 q 679 795 711 840 q 615 699 647 750 z "},"X":{"ha":899,"x_min":25,"x_max":857,"o":"m 844 135 q 853 83 857 111 q 828 32 850 56 q 786 3 808 17 q 741 -16 764 -11 q 694 -13 718 -21 q 649 22 671 -6 q 605 88 632 43 q 547 183 578 132 q 485 284 517 233 q 432 368 454 335 q 331 215 382 292 q 232 57 281 139 q 222 42 225 49 q 215 32 218 36 q 213 28 213 29 q 211 25 213 26 l 210 24 q 194 4 203 11 q 175 -5 188 -3 q 146 1 163 -7 q 106 22 129 10 q 65 48 83 33 q 35 78 46 63 q 33 111 25 94 q 167 340 99 228 q 307 563 235 451 q 201 719 254 642 q 96 876 149 796 q 85 891 89 885 q 78 901 81 897 q 72 911 74 907 q 60 933 63 922 q 60 955 57 943 q 78 979 63 967 q 113 1007 93 992 q 154 1033 133 1022 q 194 1047 175 1044 q 225 1033 213 1049 q 329 893 278 963 q 432 753 381 824 q 522 882 476 818 q 617 1010 568 946 q 675 1038 644 1039 q 739 1018 706 1038 q 774 992 757 1007 q 800 960 790 978 q 809 922 810 943 q 793 874 808 900 q 754 817 786 858 q 676 713 722 775 q 625 639 653 678 q 567 558 597 600 q 708 349 639 454 q 844 135 776 243 z "},"Y":{"ha":782,"x_min":35,"x_max":738,"o":"m 586 1039 q 631 1039 606 1039 q 681 1035 657 1039 q 721 1021 704 1031 q 738 990 738 1011 q 735 790 736 865 q 733 670 735 714 q 731 603 732 626 q 728 563 729 581 q 699 388 719 471 q 636 233 678 304 q 530 104 594 161 q 369 10 465 47 q 313 -4 349 3 q 238 -12 276 -11 q 165 -3 200 -12 q 113 35 131 7 q 94 89 100 54 q 90 157 88 124 q 107 213 93 190 q 146 232 121 236 q 236 227 185 225 q 336 245 288 229 q 424 292 385 261 q 479 376 464 324 q 314 351 386 344 q 190 394 242 357 q 103 494 138 432 q 52 637 69 557 q 35 808 35 717 q 49 993 35 899 q 67 1031 51 1015 q 106 1042 82 1046 q 150 1039 124 1040 q 199 1033 176 1038 q 238 1019 222 1028 q 254 996 254 1010 q 252 976 253 985 q 250 956 251 967 q 244 869 247 922 q 247 763 242 817 q 269 660 251 708 q 322 585 286 611 q 383 563 350 565 q 446 576 415 560 q 502 631 476 593 q 540 729 528 668 q 548 796 547 761 q 547 865 549 831 q 543 930 546 899 q 540 986 540 961 q 544 1013 539 1001 q 558 1030 549 1022 q 586 1039 567 1038 z "},"W":{"ha":1244,"x_min":36,"x_max":1214,"o":"m 1149 914 q 1186 758 1169 844 q 1208 579 1203 671 q 1206 397 1214 488 q 1168 226 1197 306 q 1106 117 1146 164 q 1015 41 1065 69 q 908 3 964 13 q 797 7 851 -7 q 695 59 743 21 q 615 163 647 97 q 544 75 586 113 q 455 17 503 38 q 356 -6 407 -4 q 257 17 304 -7 q 153 97 193 46 q 89 213 113 149 q 55 349 65 276 q 40 490 44 421 q 40 628 36 556 q 56 772 44 701 q 88 903 68 842 q 136 1006 107 964 q 192 1025 154 1035 q 234 1013 210 1019 q 279 992 258 1006 q 309 960 299 979 q 313 913 319 942 q 261 652 275 788 q 267 382 247 517 q 309 259 281 292 q 369 244 338 226 q 432 328 401 263 q 479 497 463 393 q 503 661 494 581 q 526 824 513 742 q 568 878 535 861 q 638 893 601 894 q 705 872 675 892 q 738 818 735 853 q 738 703 740 760 q 737 590 736 646 q 744 476 738 533 q 775 361 751 419 q 841 260 803 288 q 913 253 879 232 q 967 346 946 275 q 981 539 988 417 q 958 715 974 626 q 926 874 943 804 q 922 906 924 888 q 924 944 921 925 q 938 978 928 963 q 964 1003 947 994 q 1012 1022 988 1014 q 1061 1025 1036 1031 q 1108 996 1085 1019 q 1149 914 1131 972 z "},"V":{"ha":947,"x_min":24,"x_max":933,"o":"m 807 1033 q 855 1015 829 1025 q 899 989 881 1004 q 926 952 918 974 q 919 901 933 931 q 865 783 896 851 q 802 640 835 715 q 738 489 769 565 q 681 347 706 413 q 621 192 650 271 q 561 28 592 113 q 557 17 560 22 q 539 -1 553 6 q 497 -9 528 -7 q 432 -10 467 -11 q 367 -6 397 -10 q 328 3 338 -3 q 296 38 307 14 q 272 99 289 53 q 233 213 256 146 q 185 361 210 281 q 138 525 161 442 q 79 742 108 633 q 28 961 50 850 q 26 983 24 972 q 35 1002 29 993 q 61 1017 42 1011 q 104 1030 79 1022 q 152 1040 129 1038 q 193 1040 175 1043 q 217 1019 211 1036 q 322 657 265 836 q 440 299 378 478 q 564 640 499 472 q 704 975 629 808 q 721 1004 711 990 q 743 1027 731 1018 q 772 1038 756 1036 q 807 1033 788 1040 z "},"T":{"ha":764,"x_min":36,"x_max":732,"o":"m 724 989 q 729 939 726 965 q 729 890 732 913 q 717 851 726 868 q 686 831 707 835 q 615 826 671 826 q 483 826 558 825 q 494 440 490 632 q 497 54 497 249 q 488 26 494 39 q 467 6 481 15 q 429 -4 453 -3 q 378 -8 404 -7 q 331 -3 353 -8 q 292 16 308 1 q 272 58 276 31 q 269 115 269 72 q 270 219 269 158 q 273 351 271 279 q 278 497 275 424 q 282 689 281 599 q 285 832 283 779 q 202 834 240 833 q 135 836 164 835 q 72 838 100 838 q 58 842 64 836 q 48 854 53 846 q 42 882 43 863 q 38 927 40 901 q 37 976 36 953 q 42 1017 38 1000 q 57 1033 46 1033 l 678 1054 q 699 1046 689 1053 q 714 1026 707 1039 q 724 989 721 1013 z "},"U":{"ha":932,"x_min":38,"x_max":885,"o":"m 256 693 q 253 545 253 614 q 267 414 253 476 q 310 303 281 346 q 376 240 339 260 q 452 223 413 219 q 528 249 492 226 q 594 314 565 272 q 638 415 624 356 q 657 544 651 471 q 663 692 663 617 q 657 837 663 767 q 646 957 651 907 q 668 1015 642 993 q 730 1042 694 1038 q 799 1033 765 1047 q 844 981 833 1018 q 873 843 864 917 q 883 695 882 769 q 879 549 885 621 q 864 417 874 478 q 815 258 849 335 q 730 124 782 182 q 606 31 678 65 q 444 -1 535 -4 q 338 18 388 0 q 245 66 288 36 q 169 136 203 96 q 113 222 136 176 q 53 417 69 308 q 38 630 38 525 q 47 823 38 735 q 64 960 56 911 q 85 1003 67 986 q 127 1029 103 1021 q 179 1038 151 1038 q 230 1028 207 1038 q 267 1001 253 1019 q 281 956 282 982 l 256 693 z "},"Q":{"ha":953,"x_min":44,"x_max":913,"o":"m 908 138 q 911 121 913 131 q 904 99 910 113 q 882 69 899 86 q 847 33 865 51 q 810 1 828 14 q 775 -18 792 -12 q 746 -15 758 -24 q 719 10 736 -8 q 679 57 703 29 q 471 -8 585 -8 q 301 33 379 -8 q 161 154 222 75 q 74 322 104 229 q 44 515 44 415 q 74 712 44 619 q 161 878 104 804 q 301 999 222 957 q 471 1042 379 1042 q 640 999 560 1042 q 781 878 719 957 q 867 712 838 804 q 897 515 897 619 q 880 365 897 438 q 826 226 863 292 l 908 138 m 471 192 q 551 214 515 192 q 485 300 511 264 q 457 336 469 319 q 453 347 453 342 q 456 361 453 353 q 474 383 460 369 q 507 415 488 397 q 544 448 526 433 q 576 471 561 463 q 597 474 590 479 l 678 388 q 691 451 686 418 q 696 515 696 483 q 678 641 696 582 q 628 745 660 700 q 557 816 597 790 q 471 842 517 842 q 383 816 425 842 q 311 745 342 790 q 263 641 281 700 q 244 515 244 582 q 263 391 244 450 q 311 288 281 332 q 383 217 342 243 q 471 192 425 192 z "},"R":{"ha":760,"x_min":33,"x_max":726,"o":"m 711 763 q 708 622 726 688 q 649 503 689 557 q 551 409 608 450 q 433 342 494 368 q 485 287 456 314 q 547 238 515 260 q 611 200 579 217 q 668 176 643 183 q 697 149 689 168 q 704 105 706 129 q 692 56 703 81 q 666 11 682 31 q 629 -18 650 -8 q 586 -22 608 -28 q 572 -19 582 -21 q 546 -11 561 -17 q 395 83 463 19 q 265 224 328 147 q 261 229 265 225 q 260 145 261 188 q 260 60 260 103 q 250 29 258 43 q 228 7 243 18 q 190 -6 214 -4 q 141 -8 167 -8 q 93 -2 115 -8 q 56 21 71 4 q 36 69 40 38 q 33 133 33 85 q 35 248 33 181 q 41 397 38 315 q 47 563 44 479 q 51 722 50 646 q 54 860 51 799 q 58 993 56 931 q 61 1015 57 1006 q 74 1031 64 1024 q 103 1039 83 1038 q 149 1042 122 1042 q 201 1040 176 1043 q 308 1040 253 1042 q 436 1021 371 1038 q 558 970 501 1004 q 656 885 614 936 q 711 763 697 833 m 263 496 q 383 527 332 500 q 460 592 433 554 q 490 671 488 629 q 469 747 493 713 q 394 800 446 781 q 258 813 342 819 q 260 654 260 733 q 263 496 261 575 z "},"S":{"ha":779,"x_min":32,"x_max":747,"o":"m 342 688 q 433 627 383 653 q 531 576 482 601 q 622 518 579 550 q 694 440 665 486 q 730 348 721 397 q 731 250 739 299 q 699 156 724 201 q 636 75 675 110 q 506 9 578 28 q 357 -6 433 -10 q 251 14 303 -3 q 155 60 199 31 q 81 134 111 90 q 38 235 50 178 q 33 270 35 253 q 35 304 32 288 q 60 354 42 332 q 100 393 78 376 q 144 419 122 410 q 179 431 165 428 q 202 428 193 432 q 215 419 211 425 q 221 406 219 413 q 222 397 222 400 q 234 340 224 369 q 261 283 244 310 q 301 236 278 257 q 354 207 325 215 q 415 206 385 197 q 474 242 456 217 q 490 293 492 268 q 474 341 489 317 q 435 388 460 365 q 333 458 389 426 q 225 525 278 490 q 128 603 172 560 q 63 708 85 646 q 59 856 36 792 q 135 963 82 919 q 259 1027 188 1006 q 400 1044 331 1049 q 516 1023 460 1042 q 619 973 572 1004 q 698 899 665 942 q 742 804 731 856 q 732 745 747 772 q 692 698 717 718 q 640 667 668 678 q 592 661 611 657 q 551 704 565 671 q 472 820 517 788 q 387 851 426 853 q 321 822 347 850 q 297 753 294 793 q 310 720 299 738 q 342 688 322 703 z "},"L":{"ha":643,"x_min":40,"x_max":606,"o":"m 604 158 q 606 108 606 135 q 603 59 606 82 q 593 20 600 36 q 572 0 586 4 q 545 -3 565 -3 q 497 -1 525 -3 q 342 -2 422 1 q 176 -6 261 -6 q 134 -5 156 -6 q 94 3 113 -4 q 63 26 76 11 q 43 69 49 42 q 41 119 42 76 q 40 224 40 161 q 40 367 40 288 q 41 528 40 446 q 42 691 42 611 q 43 835 43 771 q 44 942 43 899 q 44 993 44 985 q 47 1015 43 1006 q 60 1031 50 1024 q 89 1039 69 1038 q 138 1041 108 1040 q 196 1040 168 1042 q 244 1029 224 1038 q 267 1004 265 1021 q 270 606 269 804 q 269 210 271 408 q 413 221 340 217 q 574 226 486 225 q 590 219 583 226 q 599 200 596 211 q 603 178 601 189 q 604 158 604 167 z "},"M":{"ha":1057,"x_min":42,"x_max":1011,"o":"m 1011 63 q 1001 32 1008 46 q 981 10 994 21 q 943 -4 967 -1 q 894 -8 919 -7 q 846 -3 868 -10 q 807 19 824 3 q 786 67 790 35 q 785 124 785 81 q 785 230 785 168 q 788 367 786 292 q 792 521 789 443 q 748 435 769 476 q 707 357 726 393 q 671 291 688 321 q 643 242 654 261 q 628 216 635 228 q 606 196 621 204 q 567 181 589 186 q 524 178 546 176 q 483 188 503 181 q 451 211 464 196 q 424 253 443 221 q 381 333 406 286 q 326 436 356 379 q 267 553 296 493 l 271 63 q 261 32 268 46 q 240 10 254 21 q 203 -4 226 -1 q 152 -8 178 -7 q 104 -3 126 -10 q 65 19 82 3 q 44 67 49 35 q 42 130 42 82 q 43 246 42 178 q 47 396 44 314 q 51 561 49 478 q 68 994 57 757 q 71 1017 67 1007 q 83 1032 74 1025 q 113 1040 93 1039 q 146 1042 124 1040 q 192 1041 168 1043 q 236 1033 215 1039 q 265 1015 257 1028 q 399 764 332 889 q 538 514 467 639 q 672 758 606 636 q 803 1004 739 881 q 823 1028 807 1017 q 854 1040 839 1039 q 898 1042 872 1040 q 947 1040 924 1043 q 986 1029 969 1038 q 1004 1003 1003 1021 l 1011 63 z "},"N":{"ha":893,"x_min":42,"x_max":858,"o":"m 857 965 q 858 902 858 950 q 858 786 858 854 q 855 637 857 718 q 850 474 853 556 q 835 46 844 281 q 831 24 836 33 q 816 8 826 15 q 786 1 806 1 q 738 -1 765 1 q 681 -1 710 -3 q 628 9 653 0 q 589 40 604 18 q 549 101 578 54 q 488 213 521 147 q 375 426 432 319 q 260 646 318 532 l 269 64 q 261 33 268 47 q 241 10 254 21 q 204 -4 228 -1 q 153 -8 179 -7 q 105 -4 128 -10 q 66 17 82 1 q 46 64 50 32 q 42 128 43 79 q 42 244 42 176 q 43 394 42 313 q 46 560 44 476 q 56 993 50 756 q 60 1015 54 1006 q 73 1031 64 1024 q 101 1039 82 1038 q 140 1042 113 1040 q 195 1043 167 1043 q 247 1039 224 1043 q 276 1025 271 1035 q 453 728 367 876 q 625 428 540 579 l 632 972 q 642 1003 633 989 q 663 1025 649 1014 q 701 1039 676 1036 q 752 1041 726 1040 q 800 1035 778 1042 q 838 1013 822 1029 q 857 965 853 997 z "},"O":{"ha":938,"x_min":43,"x_max":897,"o":"m 471 -8 q 302 33 382 -8 q 161 154 222 75 q 73 322 103 229 q 43 515 43 415 q 73 712 43 619 q 161 878 103 804 q 302 999 222 957 q 471 1042 382 1042 q 640 999 561 1042 q 781 878 719 957 q 868 712 839 804 q 897 515 897 619 q 868 322 897 415 q 781 154 839 229 q 640 33 719 75 q 471 -8 561 -8 m 471 842 q 384 816 425 842 q 312 745 343 790 q 263 641 281 700 q 244 515 244 582 q 263 391 244 450 q 312 288 281 332 q 384 217 343 243 q 471 192 425 192 q 558 217 517 192 q 631 288 600 243 q 681 391 663 332 q 699 515 699 450 q 681 641 699 582 q 631 745 663 700 q 558 816 600 790 q 471 842 517 842 z "},"P":{"ha":757,"x_min":36,"x_max":724,"o":"m 556 976 q 685 844 646 925 q 719 674 724 763 q 670 499 715 585 q 547 353 625 413 q 416 277 488 307 q 265 236 344 247 q 264 148 264 192 q 264 60 264 104 q 253 29 261 43 q 232 7 246 18 q 194 -6 218 -4 q 143 -8 169 -8 q 94 -2 117 -8 q 57 21 72 4 q 38 69 42 38 q 37 133 36 85 q 40 248 38 181 q 44 397 42 315 q 49 563 46 479 q 53 722 51 646 q 58 860 56 799 q 61 993 60 931 q 65 1015 60 1006 q 78 1031 69 1024 q 107 1039 88 1038 q 153 1042 126 1042 q 203 1040 179 1043 q 310 1040 258 1042 q 440 1022 378 1038 q 556 976 503 1007 m 264 478 q 389 512 338 483 q 467 579 440 540 q 496 662 494 618 q 472 741 497 706 q 395 797 447 776 q 263 813 343 818 q 264 645 264 733 q 264 478 264 557 z "},"a":{"ha":806,"x_min":47,"x_max":756,"o":"m 756 717 q 738 383 742 549 q 746 49 735 217 q 738 26 744 38 q 717 8 731 17 q 681 -4 704 -1 q 636 -10 660 -7 q 592 -10 613 -12 q 554 -1 571 -8 q 529 21 538 6 q 468 8 499 14 q 406 -1 438 1 q 242 24 313 -10 q 128 117 172 57 q 65 254 83 176 q 58 413 47 332 q 108 568 68 493 q 218 697 147 643 q 387 763 294 750 q 572 750 479 775 q 608 757 583 758 q 653 754 628 756 q 702 749 679 753 q 740 737 725 744 q 756 717 756 729 m 539 549 q 428 564 476 574 q 346 523 379 554 q 294 447 313 492 q 274 356 276 401 q 284 272 271 311 q 328 215 297 233 q 405 205 358 196 q 517 264 451 214 q 521 335 519 300 q 525 407 522 371 q 531 481 528 444 q 539 549 533 517 z "},"b":{"ha":718,"x_min":43,"x_max":685,"o":"m 267 693 q 379 678 321 693 q 490 635 438 664 q 585 565 543 607 q 653 468 628 524 q 669 309 685 390 q 600 161 653 228 q 508 81 561 114 q 395 28 456 49 q 269 -2 335 7 q 136 -8 203 -11 q 81 10 104 -6 q 51 65 57 25 q 47 116 49 74 q 44 222 44 158 q 43 365 43 286 q 44 527 43 444 q 46 690 44 610 q 49 833 47 769 q 51 940 50 897 q 53 992 51 983 q 57 1013 51 1003 q 70 1027 61 1021 q 99 1035 79 1033 q 145 1036 117 1036 q 200 1033 174 1036 q 245 1020 226 1029 q 265 994 264 1011 q 265 844 265 919 q 267 693 265 768 m 269 228 q 365 253 325 232 q 426 303 404 274 q 449 365 447 332 q 432 425 451 397 q 372 472 413 453 q 268 492 332 490 q 269 360 268 425 q 269 228 269 294 z "},"c":{"ha":743,"x_min":42,"x_max":693,"o":"m 561 328 q 608 319 583 324 q 651 306 632 314 q 682 283 671 297 q 690 246 693 268 q 657 144 683 189 q 592 65 631 99 q 453 -5 529 10 q 303 3 378 -19 q 233 33 265 14 q 171 78 200 53 q 81 204 113 131 q 45 357 49 278 q 66 515 42 436 q 143 657 90 593 q 249 742 186 710 q 379 781 311 775 q 513 765 447 788 q 626 683 578 742 q 658 633 642 664 q 674 574 674 603 q 663 538 674 554 q 636 510 653 522 q 600 491 619 499 q 564 481 581 483 q 513 481 528 476 q 496 501 499 485 q 474 561 490 539 q 435 591 457 583 q 388 593 413 599 q 340 571 363 588 q 285 505 306 547 q 261 413 265 463 q 267 316 257 364 q 304 235 278 268 q 360 197 329 203 q 419 203 390 190 q 470 242 447 215 q 506 303 493 269 q 528 326 513 322 q 561 328 543 331 z "},"d":{"ha":769,"x_min":39,"x_max":719,"o":"m 719 994 q 719 67 704 532 q 711 35 718 50 q 691 11 704 22 q 654 -3 678 0 q 588 -8 622 -7 q 532 6 554 -8 q 353 -4 444 -12 q 189 53 263 4 q 90 156 125 94 q 47 288 56 218 q 55 429 39 357 q 108 563 71 501 q 183 647 139 611 q 280 706 228 683 q 390 734 332 728 q 506 728 449 740 q 512 833 508 785 q 518 917 515 881 q 524 993 521 958 q 528 1015 522 1006 q 542 1031 532 1024 q 571 1039 551 1039 q 615 1038 589 1039 q 663 1033 640 1038 q 703 1020 686 1029 q 719 994 719 1011 m 497 522 q 403 535 444 542 q 332 505 361 528 q 287 447 303 482 q 269 376 271 413 q 279 304 267 339 q 319 246 292 269 q 388 215 346 222 q 490 228 431 208 q 492 367 490 296 q 497 522 494 438 z "},"e":{"ha":740,"x_min":36,"x_max":697,"o":"m 285 740 q 447 752 369 765 q 580 695 524 739 q 667 578 636 651 q 688 413 697 506 q 678 382 685 394 q 656 367 671 369 q 626 363 649 364 q 573 361 604 361 q 504 362 542 361 q 429 364 467 363 q 333 368 378 367 q 261 372 289 369 q 266 307 260 339 q 288 249 272 275 q 328 207 303 224 q 390 188 353 190 q 449 199 419 185 q 501 246 478 213 q 547 279 519 274 q 601 274 575 285 q 646 240 628 264 q 664 186 664 217 q 644 117 664 149 q 593 62 624 86 q 526 21 563 38 q 456 -1 489 4 q 371 -8 414 -10 q 288 6 328 -6 q 140 103 199 33 q 58 260 82 174 q 46 431 36 340 q 101 596 56 521 q 178 683 133 644 q 285 740 222 721 m 289 508 q 488 513 388 508 q 455 578 481 558 q 398 596 429 599 q 336 570 367 593 q 289 508 306 547 z "},"f":{"ha":657,"x_min":40,"x_max":631,"o":"m 601 925 q 627 892 624 914 q 625 847 631 871 q 608 799 619 822 q 586 763 596 776 q 567 744 578 751 q 542 742 557 736 q 444 783 483 771 q 381 783 404 794 q 347 737 357 772 q 335 638 336 701 q 333 567 333 601 q 333 496 333 532 q 451 500 388 499 q 568 501 514 501 q 596 459 586 493 q 606 386 606 425 q 597 315 607 347 q 568 278 588 282 q 528 275 560 275 q 460 276 496 275 q 405 277 433 276 q 344 279 376 278 q 353 126 350 193 q 358 6 357 60 q 360 -92 360 -47 q 358 -178 360 -136 q 356 -219 358 -196 q 344 -262 353 -242 q 320 -296 336 -282 q 279 -310 304 -310 q 233 -307 258 -310 q 186 -294 208 -304 q 149 -268 164 -285 q 133 -224 133 -251 q 133 19 133 -111 q 125 282 132 150 l 79 282 q 68 283 74 279 q 59 295 64 286 q 51 324 54 304 q 45 367 49 342 q 41 417 42 393 q 43 457 40 440 q 54 475 46 474 q 87 479 71 478 q 119 482 103 481 q 119 574 119 524 q 125 674 119 624 q 143 772 131 724 q 180 859 156 819 q 243 926 204 899 q 340 961 282 953 q 406 965 371 965 q 476 960 442 965 q 544 947 511 956 q 601 925 576 938 z "},"g":{"ha":792,"x_min":50,"x_max":740,"o":"m 719 738 q 731 506 724 625 q 739 265 738 388 q 740 151 739 217 q 733 17 740 85 q 710 -114 726 -51 q 660 -219 693 -176 q 502 -337 600 -300 q 289 -364 404 -374 q 190 -345 238 -361 q 129 -287 143 -329 q 122 -217 117 -256 q 146 -151 126 -179 q 183 -134 161 -133 q 229 -137 204 -135 q 305 -144 265 -140 q 385 -137 344 -147 q 438 -120 414 -131 q 481 -87 463 -110 q 510 -24 500 -64 q 524 85 521 17 q 353 58 438 51 q 203 104 269 65 q 94 210 136 143 q 51 365 53 278 q 65 465 50 415 q 111 561 79 515 q 187 642 143 608 q 282 697 231 676 q 391 722 333 717 q 507 717 449 728 q 515 748 507 736 q 546 768 524 760 q 592 776 564 772 q 647 780 621 781 q 694 770 674 779 q 719 738 715 761 m 521 500 q 387 519 440 535 q 308 467 333 504 q 283 381 282 429 q 313 302 285 333 q 393 269 340 271 q 525 322 446 268 q 524 406 525 363 q 521 500 524 449 z "},"h":{"ha":764,"x_min":42,"x_max":724,"o":"m 267 689 q 379 730 322 719 q 489 730 436 740 q 587 688 542 719 q 663 606 632 657 q 709 483 694 556 q 715 319 724 411 l 703 58 q 692 26 700 40 q 670 5 685 15 q 632 -6 656 -6 q 581 -7 607 -7 q 533 0 554 -7 q 496 24 511 7 q 478 75 481 42 q 484 203 478 140 q 494 333 490 267 q 486 448 501 404 q 445 511 471 492 q 388 528 419 531 q 329 501 357 525 q 283 435 301 478 q 268 335 265 393 q 281 72 272 200 q 263 26 281 46 q 218 1 246 6 q 167 -6 193 -3 q 119 -5 142 -10 q 80 15 97 0 q 57 61 63 29 q 43 506 42 281 q 61 961 44 732 q 66 990 63 976 q 77 1015 69 1004 q 98 1033 85 1026 q 132 1039 111 1039 q 176 1036 150 1038 q 224 1031 201 1035 q 263 1017 247 1026 q 279 992 279 1008 q 267 689 269 840 z "},"i":{"ha":332,"x_min":50,"x_max":289,"o":"m 275 626 q 272 334 272 479 q 276 43 272 189 q 267 24 274 33 q 247 7 260 15 q 210 -4 233 -1 q 160 -8 186 -7 q 113 -6 135 -8 q 74 7 90 -3 q 54 36 58 17 q 51 76 51 46 q 51 150 50 107 q 53 245 51 193 q 60 350 56 297 q 66 453 63 403 q 72 542 69 503 q 81 626 76 588 q 85 640 79 635 q 98 649 89 646 q 126 653 107 653 q 171 653 146 653 q 219 651 196 653 q 258 643 242 649 q 275 626 275 638 m 289 810 q 259 748 289 774 q 188 722 229 722 q 116 748 146 722 q 86 810 86 774 q 116 874 86 847 q 188 900 146 900 q 259 874 229 900 q 289 810 289 847 z "},"j":{"ha":700,"x_min":43,"x_max":660,"o":"m 640 638 q 642 599 642 618 q 644 561 643 581 q 651 424 646 503 q 658 261 657 346 q 653 90 660 176 q 628 -70 647 4 q 570 -201 608 -144 q 469 -286 532 -258 q 364 -308 419 -307 q 256 -290 308 -308 q 160 -233 204 -271 q 90 -137 115 -194 q 49 23 56 -62 q 61 179 43 108 q 86 228 68 211 q 128 253 104 246 q 181 258 153 260 q 235 251 208 257 q 282 217 271 242 q 289 161 293 193 q 283 107 286 136 q 279 63 279 78 q 300 -47 279 -11 q 348 -80 321 -82 q 401 -40 375 -78 q 436 68 426 -3 q 443 211 443 139 q 440 354 443 283 q 431 494 436 425 q 426 631 426 564 q 437 670 424 653 q 475 690 450 688 q 522 694 494 693 q 574 692 549 696 q 619 675 600 688 q 640 638 638 663 m 629 828 q 599 765 629 792 q 526 739 569 739 q 455 765 485 739 q 425 828 425 792 q 455 890 425 864 q 526 917 485 917 q 599 890 569 917 q 629 828 629 864 z "},"k":{"ha":767,"x_min":49,"x_max":725,"o":"m 713 633 q 666 573 694 600 q 605 522 638 546 q 538 476 572 499 q 471 431 503 454 q 590 277 525 356 q 721 136 654 199 q 725 119 725 129 q 720 98 725 111 q 700 65 715 85 q 668 28 685 47 q 634 -6 651 8 q 601 -27 617 -21 q 571 -26 585 -33 q 531 7 554 -18 q 480 65 507 32 q 424 139 453 99 q 370 217 396 179 q 323 288 344 254 q 289 342 301 321 q 281 339 285 340 q 275 336 278 338 l 275 56 q 265 25 272 39 q 244 1 258 13 q 207 -12 231 -10 q 156 -15 182 -14 q 108 -9 131 -15 q 70 13 86 -3 q 50 61 54 29 q 49 86 49 69 q 49 126 49 103 q 53 558 49 343 q 65 993 58 774 q 72 1013 67 1004 q 88 1026 78 1019 q 118 1036 99 1033 q 163 1038 138 1038 q 212 1036 189 1039 q 251 1025 235 1033 q 269 1000 268 1017 q 272 778 271 889 q 274 557 274 668 q 408 651 344 600 q 531 765 472 701 q 569 788 550 785 q 617 772 589 792 q 648 749 628 765 q 685 713 668 733 q 713 672 703 693 q 713 633 722 651 z "},"z":{"ha":660,"x_min":32,"x_max":624,"o":"m 597 751 q 612 736 606 750 q 621 701 618 722 q 624 655 624 679 q 622 609 624 631 q 617 571 621 588 q 610 550 614 554 q 464 380 532 467 q 328 201 396 293 l 564 203 q 581 193 574 200 q 593 173 588 186 q 601 136 599 160 q 603 90 603 113 q 601 48 604 67 q 590 17 599 29 q 564 0 581 4 q 529 -3 556 -3 q 466 -4 503 -4 q 385 -3 429 -4 q 294 -1 340 -3 q 60 7 188 1 q 49 11 54 6 q 40 24 44 15 q 36 53 36 33 q 33 119 35 81 q 39 182 32 158 q 181 374 101 283 q 349 557 260 465 q 226 556 286 557 q 104 554 165 556 q 86 564 93 557 q 74 584 79 571 q 65 621 68 597 q 62 671 63 646 q 63 718 61 696 q 74 756 65 740 q 99 776 82 772 q 143 777 106 778 q 233 774 181 776 q 347 769 286 772 q 462 763 408 767 q 553 757 515 760 q 597 751 590 754 z "},"y":{"ha":782,"x_min":39,"x_max":735,"o":"m 581 768 q 626 770 600 769 q 674 767 651 771 q 714 751 697 763 q 732 717 731 740 q 734 417 733 542 q 734 206 735 292 q 733 67 733 121 q 729 -18 732 14 q 723 -68 726 -50 q 715 -101 719 -86 q 678 -186 701 -146 q 621 -258 654 -226 q 544 -313 588 -290 q 447 -346 500 -336 q 302 -349 379 -357 q 157 -303 225 -342 q 122 -252 129 -287 q 122 -182 114 -217 q 153 -123 131 -147 q 210 -104 176 -99 q 288 -126 240 -115 q 383 -133 336 -136 q 469 -104 431 -129 q 519 -19 507 -79 q 525 31 524 4 q 526 87 526 58 q 524 144 525 115 q 525 200 524 174 q 417 129 476 146 q 297 125 357 113 q 163 189 215 143 q 83 298 111 235 q 47 436 56 361 q 46 588 39 511 q 53 658 49 624 q 61 726 57 693 q 74 746 65 738 q 93 759 81 753 q 125 764 106 765 q 169 762 143 763 q 217 757 194 761 q 256 744 240 753 q 272 721 272 736 q 265 653 269 688 q 258 583 261 618 q 253 512 254 547 q 258 442 253 476 q 288 351 265 382 q 340 311 310 319 q 402 315 369 303 q 463 356 435 328 q 509 424 490 383 q 531 513 528 464 q 533 591 532 556 q 535 651 533 626 q 536 704 536 681 q 539 735 533 721 q 551 756 542 746 q 581 768 561 765 z "},"x":{"ha":803,"x_min":31,"x_max":769,"o":"m 758 138 q 768 113 767 126 q 765 85 769 101 q 743 53 760 69 q 707 20 726 36 q 667 -6 688 4 q 625 -14 646 -15 q 583 6 604 -12 q 545 46 572 14 q 482 126 518 78 q 444 177 464 150 q 401 232 424 204 q 323 145 360 186 q 258 74 286 104 q 197 7 225 38 q 181 -4 190 0 q 161 -6 172 -7 q 135 6 150 -6 q 99 31 119 15 q 63 62 79 46 q 38 93 46 78 q 39 121 31 108 l 275 407 q 208 502 239 457 q 154 582 178 547 q 106 657 128 622 q 97 675 99 665 q 100 693 96 683 q 119 714 104 703 q 156 740 135 725 q 197 765 176 754 q 234 780 217 776 q 261 772 251 783 q 336 672 299 721 q 411 572 374 622 l 563 753 q 586 767 572 761 q 614 770 597 771 q 650 757 631 769 q 692 729 671 744 q 726 697 713 714 q 744 658 740 679 q 733 614 747 638 q 712 585 728 606 q 671 535 696 564 q 615 472 646 507 q 549 397 583 436 q 653 267 601 332 q 758 138 706 203 z "},"w":{"ha":1190,"x_min":29,"x_max":1158,"o":"m 1133 726 q 1151 559 1144 643 q 1151 385 1158 475 q 1136 279 1149 332 q 1100 178 1124 226 q 1040 90 1076 131 q 953 24 1004 50 q 853 -9 906 -1 q 751 -6 801 -17 q 656 32 700 4 q 582 106 613 60 q 492 35 540 64 q 390 -3 443 6 q 281 1 336 -12 q 171 60 225 15 q 79 186 110 110 q 39 349 49 263 q 37 526 29 436 q 60 690 44 615 q 67 717 63 704 q 75 743 71 731 q 93 763 82 754 q 124 768 104 771 q 167 762 142 765 q 214 751 192 758 q 251 731 236 744 q 263 696 265 718 q 244 544 251 617 q 242 401 238 471 q 283 254 251 297 q 351 218 315 211 q 417 276 388 225 q 453 408 447 326 q 458 478 457 443 q 461 550 460 514 q 474 597 461 578 q 508 626 488 615 q 553 640 528 636 q 601 642 578 643 q 626 639 614 640 q 650 633 639 638 q 688 603 672 624 q 708 543 703 583 q 712 483 711 514 q 714 421 713 453 q 743 275 718 328 q 801 208 768 222 q 871 219 835 194 q 932 304 907 243 q 957 397 951 349 q 960 496 963 446 q 951 596 958 546 q 938 693 944 646 q 942 733 933 713 q 975 757 951 753 q 1019 766 993 761 q 1068 769 1044 771 q 1110 759 1092 768 q 1133 726 1129 750 z "},"v":{"ha":800,"x_min":29,"x_max":763,"o":"m 624 763 q 722 743 686 765 q 761 672 757 721 q 762 649 763 661 q 760 625 761 638 q 742 519 756 583 q 705 385 728 456 q 650 243 682 314 q 576 115 618 172 q 481 23 533 58 q 367 -12 429 -12 q 265 15 310 -12 q 188 88 221 42 q 110 224 140 151 q 63 375 81 297 q 39 534 46 453 q 31 694 32 615 q 33 715 29 704 q 45 736 38 726 q 63 753 53 746 q 86 760 74 760 q 131 763 106 761 q 181 762 157 765 q 221 747 204 758 q 240 711 238 736 q 256 506 243 610 q 308 292 268 401 q 340 224 324 250 q 368 199 356 197 q 392 217 379 200 q 417 261 404 233 q 444 324 431 289 q 469 400 457 360 q 509 553 493 476 q 540 686 525 631 q 566 742 551 721 q 624 763 581 763 z "},"u":{"ha":779,"x_min":49,"x_max":735,"o":"m 735 724 q 717 386 721 554 q 717 47 713 218 q 708 25 715 35 q 688 8 701 17 q 650 -4 674 -1 q 603 -8 628 -7 q 558 -6 579 -10 q 519 7 536 -3 q 497 36 503 17 q 308 -4 390 -18 q 168 67 225 10 q 81 210 111 124 q 50 388 51 296 q 56 550 49 468 q 82 714 63 632 q 100 749 86 735 q 138 761 114 763 q 183 757 157 760 q 231 748 208 754 q 268 731 253 742 q 282 700 283 719 q 265 576 271 639 q 258 446 258 514 q 280 297 258 354 q 333 217 301 239 q 399 210 364 194 q 461 282 433 226 q 499 390 488 335 q 516 501 511 444 q 522 616 521 558 q 531 732 524 674 q 539 749 532 742 q 588 763 551 764 q 631 760 606 761 q 680 754 657 758 q 719 743 703 750 q 735 724 735 736 z "},"t":{"ha":603,"x_min":29,"x_max":567,"o":"m 338 207 q 363 172 347 183 q 397 160 378 161 q 436 163 415 158 q 479 176 457 168 q 561 128 551 203 q 558 56 567 92 q 529 0 549 19 q 446 -46 493 -36 q 354 -49 399 -56 q 251 -11 294 -40 q 178 62 207 18 q 132 159 149 106 q 110 268 115 213 q 106 378 104 322 q 110 501 107 435 q 98 502 103 501 q 88 503 93 503 q 49 517 58 506 q 33 561 39 529 q 30 608 31 583 q 31 654 29 633 q 35 688 32 675 q 44 701 39 701 q 87 703 65 703 q 131 703 108 703 q 137 851 133 782 q 146 992 140 921 q 163 1022 147 1011 q 200 1036 178 1033 q 244 1038 218 1038 q 292 1036 269 1039 q 332 1023 315 1033 q 350 992 349 1013 q 347 842 351 915 q 338 699 342 769 q 427 697 382 697 q 518 694 472 696 q 533 683 526 692 q 544 662 540 676 q 550 624 549 647 q 551 574 551 600 q 548 526 551 549 q 536 489 544 504 q 513 469 528 474 q 445 471 499 467 q 324 482 392 475 q 322 419 324 456 q 319 344 319 383 q 323 269 319 306 q 338 207 326 233 z "},"s":{"ha":675,"x_min":33,"x_max":626,"o":"m 451 557 q 434 613 451 592 q 392 645 417 635 q 341 656 368 656 q 296 650 314 657 q 265 629 272 642 q 263 603 258 617 q 278 578 267 590 q 303 560 289 567 q 340 542 319 551 q 381 526 361 533 q 415 513 400 519 q 439 503 431 507 q 537 440 494 478 q 603 351 579 401 q 626 256 625 303 q 610 166 626 208 q 564 88 594 124 q 494 28 533 53 q 392 -13 446 -3 q 288 -16 339 -24 q 188 16 236 -8 q 101 79 140 40 q 62 135 76 104 q 44 199 47 167 q 50 264 42 232 q 82 321 58 296 q 93 332 86 328 q 134 344 113 349 q 165 310 156 340 q 228 214 186 251 q 331 174 271 176 q 368 178 350 172 q 399 197 386 185 q 416 226 411 208 q 413 268 421 244 q 376 311 404 293 q 313 342 347 329 q 243 367 278 356 q 188 388 208 378 q 94 449 135 413 q 42 547 53 486 q 48 645 33 596 q 97 731 63 694 q 156 775 124 757 q 223 803 189 793 q 290 817 257 814 q 351 821 324 821 q 451 806 403 821 q 535 765 499 792 q 594 699 572 738 q 614 610 615 660 q 603 574 614 590 q 574 547 592 558 q 533 529 556 535 q 486 524 511 524 q 461 531 471 524 q 451 557 451 538 z "},"r":{"ha":693,"x_min":44,"x_max":644,"o":"m 639 569 q 637 492 644 529 q 609 428 629 456 q 555 386 589 401 q 474 375 521 371 q 424 410 433 381 q 421 478 415 440 q 425 557 426 525 q 398 608 422 600 q 344 590 374 615 q 292 506 315 565 q 268 357 268 447 l 272 43 q 263 19 269 29 q 242 3 256 10 q 206 -7 229 -4 q 155 -10 181 -10 q 107 -7 129 -11 q 69 8 85 -3 q 47 43 53 19 q 44 89 44 54 q 45 174 44 124 q 47 284 46 224 q 51 406 49 344 q 65 722 57 549 q 69 738 64 731 q 83 748 74 743 q 111 754 92 753 q 155 756 129 756 q 203 756 181 757 q 243 749 226 754 q 261 731 260 743 l 263 704 q 367 750 308 736 q 485 749 425 764 q 593 683 556 729 q 639 569 631 636 z "},"q":{"ha":710,"x_min":38,"x_max":667,"o":"m 518 756 q 563 755 538 756 q 612 750 589 754 q 651 736 635 746 q 667 708 667 726 q 651 203 653 454 q 646 -301 650 -47 q 636 -335 643 -319 q 615 -358 629 -347 q 578 -371 601 -368 q 525 -374 553 -374 q 473 -367 497 -374 q 431 -342 449 -360 q 410 -292 414 -325 q 409 -250 408 -279 q 410 -178 410 -221 q 414 -81 411 -135 q 419 32 417 -28 q 338 38 379 32 q 256 57 296 43 q 132 138 182 82 q 60 264 82 193 q 45 412 38 335 q 97 558 53 489 q 249 684 151 642 q 475 733 347 726 q 490 750 481 743 q 518 756 499 757 m 454 536 q 349 524 392 544 q 283 468 306 503 q 258 392 260 433 q 274 318 256 351 q 333 265 293 285 q 435 256 372 246 q 444 406 439 335 q 454 536 450 478 z "},"p":{"ha":710,"x_min":38,"x_max":672,"o":"m 479 700 q 591 615 547 667 q 653 501 635 563 q 667 376 672 440 q 635 251 663 311 q 558 142 608 192 q 436 61 507 92 q 272 15 363 31 q 269 -22 271 7 q 268 -98 268 -47 q 268 -237 268 -149 q 260 -271 267 -256 q 239 -294 253 -283 q 201 -308 225 -306 q 149 -312 176 -311 q 99 -306 122 -312 q 61 -283 76 -300 q 44 -233 46 -267 q 43 -124 43 -194 q 44 33 43 -54 q 44 218 44 119 q 44 410 44 317 q 42 588 43 504 q 38 732 40 672 q 53 769 38 754 q 96 789 68 783 q 140 796 115 792 q 189 800 165 800 q 229 793 213 800 q 249 768 246 786 q 250 756 250 761 q 251 747 250 751 q 363 740 304 751 q 479 700 421 729 m 267 217 q 360 249 321 222 q 422 312 400 275 q 446 390 443 349 q 430 466 449 431 q 370 524 411 501 q 264 549 329 547 q 265 392 264 471 q 267 225 265 314 l 267 221 l 267 217 z "},"o":{"ha":761,"x_min":31,"x_max":728,"o":"m 379 -10 q 244 21 307 -10 q 133 103 181 51 q 58 225 86 156 q 31 374 31 294 q 58 522 31 453 q 133 644 86 592 q 244 726 181 696 q 379 756 307 756 q 515 726 451 756 q 625 644 578 696 q 700 522 672 592 q 728 374 728 453 q 700 225 728 294 q 625 103 672 156 q 515 21 578 51 q 379 -10 451 -10 m 379 550 q 320 536 347 550 q 274 498 293 522 q 242 442 254 474 q 231 374 231 410 q 242 305 231 338 q 274 249 254 272 q 320 211 293 225 q 379 197 347 197 q 438 211 410 197 q 485 249 465 225 q 517 305 506 272 q 529 374 529 338 q 517 442 529 410 q 485 498 506 474 q 438 536 465 522 q 379 550 410 550 z "},"n":{"ha":835,"x_min":40,"x_max":778,"o":"m 258 704 q 376 737 311 726 q 504 740 440 747 q 624 703 568 732 q 717 617 681 674 q 763 497 747 568 q 778 321 778 425 l 775 94 q 774 68 775 83 q 765 38 772 53 q 744 10 758 22 q 707 -4 731 -1 q 628 -8 669 -10 q 564 24 586 -6 q 547 67 551 40 q 541 124 542 93 q 542 184 540 154 q 547 236 544 214 q 557 331 553 285 q 554 419 561 376 q 522 498 546 465 q 467 545 499 531 q 402 556 436 560 q 338 528 368 553 q 288 457 308 504 q 263 339 267 410 l 267 47 q 257 24 264 35 q 237 6 250 14 q 200 -4 224 -1 q 149 -8 175 -7 q 101 -3 124 -8 q 63 13 78 1 q 43 47 47 25 q 40 108 40 56 q 42 234 40 160 q 47 393 44 308 q 53 552 50 478 q 58 678 56 626 q 61 740 61 731 q 65 756 60 749 q 79 767 69 763 q 108 774 89 772 q 152 776 126 775 q 201 775 178 776 q 242 768 225 774 q 258 750 258 763 l 258 704 l 258 704 z "},"m":{"ha":1260,"x_min":53,"x_max":1203,"o":"m 667 651 q 799 758 722 724 q 950 784 875 792 q 1087 724 1025 776 q 1174 571 1149 672 q 1201 324 1203 457 q 1192 61 1200 192 q 1165 3 1189 17 q 1104 -12 1142 -11 q 1053 -12 1079 -12 q 1006 -2 1028 -11 q 970 26 985 7 q 954 79 956 44 q 955 174 951 126 q 963 269 958 221 q 968 365 967 317 q 961 464 969 414 q 913 572 949 543 q 838 582 878 600 q 763 500 797 564 q 718 331 728 436 q 711 212 713 272 q 714 89 710 151 q 708 44 718 61 q 678 18 697 28 q 638 5 660 8 q 596 1 615 1 q 517 33 543 1 q 485 119 490 65 q 486 219 481 168 q 494 319 492 269 q 489 438 501 388 q 453 514 476 488 q 401 541 431 540 q 346 511 372 542 q 299 417 319 481 q 274 250 279 353 l 278 49 q 268 25 275 36 q 249 7 261 15 q 213 -4 236 -1 q 162 -8 188 -7 q 114 -4 136 -8 q 75 12 92 0 q 54 47 58 24 q 53 108 53 56 q 53 235 53 161 q 56 396 54 310 q 59 557 57 482 q 63 685 61 632 q 67 747 65 738 q 69 764 64 757 q 82 776 72 771 q 111 782 92 781 q 155 784 129 783 q 204 783 181 785 q 244 776 228 782 q 263 758 261 771 l 264 668 q 363 731 310 708 q 469 753 415 753 q 573 728 522 753 q 667 651 624 704 z "},"l":{"ha":329,"x_min":47,"x_max":274,"o":"m 274 61 q 264 31 271 44 q 244 9 257 19 q 207 -4 231 -1 q 157 -8 183 -7 q 108 -4 131 -10 q 70 17 86 1 q 50 64 54 33 q 47 127 47 79 q 49 242 47 175 q 52 391 50 310 q 57 556 54 472 q 71 986 63 749 q 75 1008 69 999 q 88 1023 79 1017 q 117 1031 97 1029 q 162 1032 136 1031 q 210 1031 188 1033 q 250 1019 233 1028 q 268 993 267 1011 l 274 61 z "},"!":{"ha":328,"x_min":33,"x_max":281,"o":"m 53 297 q 59 638 60 468 q 51 979 58 807 q 61 1004 53 992 q 82 1024 68 1014 q 121 1036 96 1033 q 169 1042 144 1040 q 217 1039 194 1043 q 254 1023 239 1035 q 275 988 269 1011 q 279 940 278 976 q 281 853 281 904 q 273 567 281 706 q 249 294 265 429 q 244 279 250 285 q 231 268 240 272 q 203 264 222 264 q 158 265 183 264 q 109 269 132 265 q 69 278 86 272 q 53 297 53 285 m 263 92 q 229 22 263 51 q 147 -7 196 -7 q 67 22 100 -7 q 33 92 33 51 q 67 164 33 135 q 147 193 100 193 q 229 164 196 193 q 263 92 263 135 z "},"#":{"ha":1026,"x_min":40,"x_max":961,"o":"m 889 369 q 915 361 903 367 q 935 346 926 356 q 946 317 943 336 q 948 279 947 299 q 943 243 949 260 q 923 215 938 226 q 882 200 908 203 q 834 199 871 199 q 747 200 797 200 q 722 109 735 154 q 697 18 710 64 q 683 -1 693 6 q 659 -12 675 -8 q 619 -12 643 -17 q 570 -4 596 -10 q 524 11 544 1 q 492 36 504 21 q 483 76 481 51 q 492 121 485 88 q 514 200 499 154 l 460 200 q 415 199 436 200 q 374 199 394 199 l 321 15 q 304 -6 315 3 q 279 -17 294 -12 q 240 -15 264 -21 q 192 -5 217 -11 q 147 12 167 1 q 115 39 126 22 q 106 79 103 56 q 115 119 107 90 q 136 192 124 149 q 116 190 125 190 q 100 189 107 189 q 88 188 93 188 q 68 189 76 186 q 55 198 61 192 q 46 219 49 204 q 42 252 44 233 q 41 288 40 271 q 48 319 42 306 q 69 333 54 332 q 128 340 97 338 q 189 343 158 342 q 203 383 196 363 q 217 425 210 404 q 178 423 196 424 q 150 422 161 422 q 126 421 136 421 q 108 422 117 419 q 95 431 101 425 q 88 453 89 438 q 83 486 85 467 q 83 523 82 506 q 91 553 85 540 q 111 568 97 567 l 268 579 q 293 649 282 617 q 313 704 304 681 q 331 756 322 732 q 339 769 332 764 q 386 775 351 782 q 428 763 404 769 q 474 749 453 757 q 510 729 496 740 q 521 706 524 718 l 489 593 l 654 603 q 678 667 667 638 q 697 717 689 696 q 715 760 707 742 q 725 774 718 768 q 742 781 732 778 q 771 778 751 783 q 813 763 789 771 q 858 746 838 756 q 893 725 879 736 q 903 701 907 714 l 874 618 l 897 619 q 922 614 910 619 q 942 600 932 610 q 954 572 951 590 q 959 535 957 554 q 958 499 961 515 q 942 469 954 482 q 903 453 929 457 q 818 444 885 449 q 807 407 813 425 q 796 369 801 389 l 889 369 m 421 360 q 494 363 457 361 q 567 365 531 364 q 579 399 574 382 q 592 435 585 417 q 517 433 556 433 q 442 431 478 432 l 421 360 z "},"?":{"ha":824,"x_min":31,"x_max":781,"o":"m 485 1035 q 628 994 560 1026 q 736 897 696 961 q 769 820 758 861 q 779 738 781 779 q 763 658 778 697 q 718 586 747 619 q 650 521 686 549 q 576 468 614 493 q 498 418 538 443 q 421 360 458 393 q 383 315 394 336 q 372 271 372 293 q 356 244 371 247 q 321 240 340 240 q 263 250 289 240 q 219 278 236 260 q 194 322 201 296 q 194 383 188 349 q 252 491 211 450 q 346 569 293 532 q 398 603 367 582 q 461 650 429 625 q 520 702 493 675 q 558 756 547 729 q 567 813 574 789 q 542 853 561 838 q 493 876 522 869 q 431 882 464 883 q 367 871 399 881 q 313 844 336 861 q 269 808 289 828 q 240 767 250 789 q 230 717 229 744 q 249 660 231 690 q 249 608 263 635 q 208 565 235 582 q 147 544 181 547 q 89 564 114 542 q 44 630 57 592 q 32 709 31 668 q 47 792 33 750 q 81 868 60 833 q 157 953 110 918 q 260 1008 204 988 q 375 1035 317 1029 q 485 1035 433 1042 m 393 92 q 359 22 393 51 q 279 -7 325 -7 q 198 22 231 -7 q 165 92 165 51 q 198 164 165 135 q 279 193 231 193 q 359 164 325 193 q 393 92 393 135 z "},"@":{"ha":1099,"x_min":57,"x_max":1031,"o":"m 778 957 q 885 885 838 928 q 965 788 932 842 q 1014 674 997 735 q 1031 550 1031 614 q 1022 458 1031 506 q 993 366 1013 410 q 943 285 974 322 q 869 226 913 249 q 889 185 888 211 q 860 109 889 143 q 794 51 832 75 q 660 -3 729 13 q 522 -15 590 -19 q 387 15 453 -10 q 264 79 321 39 q 174 165 213 117 q 108 268 135 213 q 69 384 82 324 q 60 506 57 444 q 82 641 63 575 q 137 765 101 707 q 224 870 172 822 q 342 950 275 918 q 447 987 392 974 q 558 1001 501 1000 q 669 992 614 1003 q 778 957 725 981 m 408 225 q 542 195 472 189 q 682 232 611 201 q 665 243 672 236 q 649 257 658 250 q 571 243 611 246 q 489 249 531 240 q 360 312 415 265 q 278 438 306 358 l 278 436 q 279 428 279 432 q 281 419 279 424 q 321 308 290 361 q 408 225 351 256 m 581 433 q 581 454 581 442 q 583 481 582 467 q 584 508 583 494 q 586 531 585 522 q 536 536 558 542 q 499 516 514 531 q 481 483 485 501 q 485 449 476 464 q 517 428 493 435 q 581 433 540 422 m 788 419 q 832 542 825 476 q 816 665 839 608 q 742 761 793 722 q 611 803 690 800 q 435 756 519 806 q 307 614 351 706 q 363 675 326 653 q 442 708 399 697 q 532 718 486 718 q 618 713 578 718 q 633 728 625 722 q 653 733 642 735 q 697 728 672 731 q 742 713 721 725 q 778 672 767 697 q 786 642 785 660 q 786 601 788 625 q 781 521 782 563 q 783 417 779 479 l 785 415 l 786 415 l 786 417 q 787 418 786 418 q 788 419 788 418 z "},"$":{"ha":675,"x_min":33,"x_max":626,"o":"m 451 557 q 434 613 451 592 q 392 645 417 635 q 341 656 368 656 q 296 650 314 657 q 265 629 272 642 q 263 603 258 617 q 278 578 267 590 q 303 560 289 567 q 340 542 319 551 q 381 526 361 533 q 415 513 400 519 q 439 503 431 507 q 537 440 494 478 q 603 351 579 401 q 626 256 625 303 q 610 166 626 208 q 564 88 594 124 q 494 28 533 53 q 435 -2 465 8 q 372 -17 404 -12 l 364 -124 q 358 -131 363 -128 q 347 -135 354 -133 q 328 -136 340 -136 q 279 -132 304 -135 q 250 -115 254 -129 q 253 -77 249 -108 q 263 -11 257 -46 q 176 22 218 0 q 101 79 135 44 q 62 135 76 104 q 44 199 47 167 q 50 264 42 232 q 82 321 58 296 q 93 332 86 328 q 134 344 113 349 q 165 310 156 340 q 228 214 186 251 q 331 174 271 176 q 368 178 350 172 q 399 197 386 185 q 416 226 411 208 q 413 268 421 244 q 376 311 404 293 q 313 342 347 329 q 243 367 278 356 q 188 388 208 378 q 94 449 135 413 q 42 547 53 486 q 48 645 33 596 q 97 731 63 694 q 188 790 136 771 q 289 817 240 810 l 285 935 q 289 942 285 938 q 318 953 296 949 q 367 956 342 956 q 397 942 392 957 q 399 926 399 938 q 399 899 399 915 q 398 862 399 882 q 396 822 397 842 l 396 817 q 481 794 440 811 q 551 751 521 778 q 598 690 581 725 q 614 610 615 654 q 603 574 614 590 q 574 547 592 558 q 533 529 556 535 q 486 524 511 524 q 461 531 471 524 q 451 557 451 538 z "},"%":{"ha":829,"x_min":51,"x_max":778,"o":"m 699 919 q 474 485 581 704 q 274 40 368 267 q 268 31 272 36 q 251 14 261 22 q 224 -1 240 4 q 183 0 207 -6 q 135 16 160 7 q 93 40 111 25 q 67 76 75 54 q 68 131 60 97 q 93 194 74 147 q 144 308 113 242 q 214 451 175 374 q 294 608 253 529 q 355 720 326 669 q 410 818 383 771 q 465 911 438 865 q 522 1010 492 957 q 538 1028 529 1022 q 556 1035 544 1033 q 586 1028 568 1036 q 626 1008 603 1019 q 667 981 649 996 q 697 951 686 967 q 699 919 707 936 m 200 1038 q 258 1026 231 1038 q 306 994 285 1014 q 338 946 326 974 q 350 888 350 918 q 338 830 350 857 q 306 783 326 803 q 258 751 285 763 q 200 739 231 739 q 142 751 169 739 q 95 783 115 763 q 63 830 75 803 q 51 888 51 857 q 63 946 51 918 q 95 994 75 974 q 142 1026 115 1014 q 200 1038 169 1038 m 229 888 q 221 909 229 901 q 200 917 213 917 q 172 888 172 917 q 200 861 172 861 q 221 869 213 861 q 229 888 229 876 m 628 297 q 686 285 658 297 q 734 253 714 274 q 766 206 754 233 q 778 147 778 178 q 766 90 778 117 q 734 42 754 63 q 686 9 714 21 q 628 -3 658 -3 q 570 9 597 -3 q 522 42 543 21 q 490 90 501 63 q 478 147 478 117 q 490 206 478 178 q 522 253 501 233 q 570 285 543 274 q 628 297 597 297 m 657 147 q 649 168 657 160 q 628 176 640 176 q 608 168 617 176 q 599 147 599 160 q 608 127 599 136 q 628 118 617 118 q 649 127 640 118 q 657 147 657 136 z "},"&":{"ha":919,"x_min":43,"x_max":858,"o":"m 831 593 q 846 585 840 593 q 855 567 851 578 q 858 547 858 557 q 858 529 858 536 q 855 484 857 507 q 848 441 853 461 q 835 408 843 421 q 815 392 828 394 l 803 392 q 809 248 825 319 q 747 120 793 176 q 627 28 700 64 q 461 -8 554 -7 q 319 12 389 -10 q 191 75 249 33 q 95 177 133 117 q 49 315 57 238 q 60 437 43 376 q 110 551 76 497 q 192 650 143 606 q 299 724 240 694 q 274 769 294 746 q 231 813 254 792 q 188 855 207 835 q 168 894 169 875 q 166 935 167 911 q 167 982 165 960 q 172 1019 168 1004 q 185 1032 176 1035 q 769 1040 476 1043 q 789 1031 781 1038 q 802 1012 796 1024 q 810 979 808 1000 q 812 933 811 957 q 808 890 813 910 q 794 855 804 869 q 765 838 785 840 q 726 836 756 836 q 656 838 697 836 q 564 840 614 839 q 463 844 514 842 l 461 844 q 515 794 488 819 q 569 744 542 768 l 571 742 q 574 731 574 736 q 572 715 574 726 q 567 688 569 703 q 562 659 565 674 q 556 632 558 644 q 547 615 551 619 q 536 608 543 610 q 520 608 529 607 q 499 608 511 610 q 433 594 467 606 q 375 568 400 583 q 272 459 304 525 q 247 331 239 393 q 305 228 254 269 q 451 194 356 188 q 536 221 497 199 q 593 283 575 243 q 601 333 604 307 q 575 386 597 360 l 575 388 q 501 376 539 382 q 432 360 463 369 q 403 385 419 361 q 375 440 388 410 q 357 495 363 469 q 361 524 351 521 q 592 584 474 567 q 831 593 711 601 z "},"(":{"ha":557,"x_min":40,"x_max":515,"o":"m 499 885 q 392 800 440 851 q 314 685 344 749 q 272 553 283 622 q 275 414 260 483 q 335 281 290 344 q 461 165 381 217 q 474 157 468 161 q 488 149 481 153 q 501 131 499 142 q 500 108 503 121 q 480 43 497 79 q 443 -19 463 7 q 397 -39 426 -42 q 339 -21 368 -36 q 215 72 271 18 q 119 195 158 126 q 60 347 79 264 q 46 525 40 429 q 78 689 51 611 q 149 833 106 767 q 249 956 192 900 q 371 1054 306 1013 q 406 1063 389 1065 q 435 1047 424 1061 q 465 1008 447 1032 q 496 960 483 985 q 512 915 508 936 q 499 885 515 894 z "},"-":{"ha":615,"x_min":43,"x_max":569,"o":"m 60 515 q 536 515 297 522 q 551 507 544 514 q 563 488 558 500 q 568 454 567 476 q 569 410 569 433 q 565 368 569 388 q 553 335 561 349 q 529 318 544 322 q 497 317 521 317 q 440 320 474 318 q 367 325 407 322 q 285 331 326 328 q 206 335 244 333 q 138 340 168 338 q 71 343 101 342 q 60 346 65 342 q 52 358 56 349 q 47 383 49 367 q 44 422 46 400 q 43 465 43 444 q 47 501 43 486 q 60 515 51 515 z "},"+":{"ha":703,"x_min":58,"x_max":643,"o":"m 639 483 q 642 432 640 458 q 640 383 643 406 q 628 345 636 361 q 601 325 619 329 q 555 322 592 322 q 467 325 518 322 q 469 252 468 289 q 471 178 469 215 q 461 160 468 167 q 441 147 454 153 q 403 139 428 142 q 353 134 379 136 q 306 134 328 132 q 267 144 283 136 q 246 171 250 153 q 242 229 243 183 q 244 338 242 275 q 182 342 211 340 q 132 344 153 343 q 86 347 107 346 q 74 351 79 346 q 65 365 69 356 q 61 393 61 374 q 59 438 60 413 q 59 487 58 464 q 64 526 60 510 q 78 544 68 543 l 257 547 q 263 606 260 579 q 268 651 265 632 q 272 694 271 675 q 276 706 271 700 q 290 714 281 710 q 319 718 300 718 q 365 717 339 718 q 413 715 390 717 q 453 708 436 713 q 469 693 469 703 q 467 621 468 657 q 467 549 467 585 l 600 550 q 618 540 610 547 q 631 520 625 533 q 639 483 636 507 z "},"":{"ha":660,"x_min":58,"x_max":596,"o":"m 571 279 q 541 240 557 260 q 508 205 525 219 q 474 183 492 190 q 442 185 457 176 q 403 215 431 192 q 339 274 375 239 q 292 217 315 246 q 246 161 268 189 q 228 154 239 156 q 203 156 218 153 q 169 174 189 160 q 128 203 149 188 q 92 236 107 219 q 69 269 76 253 q 71 303 63 286 q 107 349 76 314 q 178 429 138 383 l 67 540 q 60 551 61 544 q 62 567 58 558 q 76 592 65 576 q 106 627 89 607 q 139 664 122 647 q 169 690 156 681 q 190 693 183 699 l 325 578 q 368 619 349 600 q 403 651 388 638 q 435 681 419 667 q 446 686 439 685 q 462 683 453 688 q 486 667 471 679 q 519 638 500 654 q 553 603 538 621 q 578 572 569 586 q 582 550 588 557 q 533 497 557 524 q 485 443 510 471 l 588 356 q 594 338 593 349 q 591 313 596 328 q 571 279 586 299 z "},"=":{"ha":607,"x_min":54,"x_max":547,"o":"m 69 613 q 293 614 182 614 q 517 611 404 614 q 532 604 526 610 q 542 591 538 600 q 547 567 546 582 q 547 535 547 551 q 544 503 547 518 q 532 479 540 489 q 510 467 524 469 q 481 467 503 467 q 427 469 458 468 q 358 472 396 471 q 282 476 319 474 q 207 481 243 479 q 143 483 171 482 q 81 486 110 485 q 71 488 76 485 q 58 515 60 493 q 56 544 57 528 q 54 575 54 560 q 58 601 54 590 q 69 613 61 611 m 69 381 q 293 383 182 383 q 517 379 404 382 q 532 372 526 378 q 542 360 538 368 q 547 336 546 351 q 547 303 547 319 q 544 272 547 286 q 532 248 540 258 q 510 236 524 238 q 481 235 503 235 q 427 238 458 236 q 358 240 396 239 q 282 243 319 242 q 207 248 243 246 q 143 251 171 250 q 81 254 110 253 q 71 256 76 253 q 58 283 60 261 q 56 313 57 296 q 54 344 54 329 q 58 369 54 358 q 69 381 61 379 z "},",":{"ha":306,"x_min":39,"x_max":258,"o":"m 86 217 q 96 239 89 229 q 114 253 103 247 q 144 260 125 260 q 192 256 171 258 q 229 249 214 254 q 256 228 253 242 q 251 190 258 214 q 238 151 246 174 q 219 106 229 129 q 200 62 210 83 q 182 26 190 40 q 167 1 175 14 q 147 -21 158 -11 q 122 -35 136 -31 q 89 -36 108 -40 q 49 -23 60 -28 q 40 -8 39 -18 l 86 217 z "},"/":{"ha":640,"x_min":39,"x_max":604,"o":"m 256 36 q 235 8 247 19 q 207 -7 224 -1 q 167 -6 190 -12 q 119 9 143 0 q 76 31 94 18 q 48 65 57 44 q 47 118 39 86 q 69 181 51 135 q 112 294 86 228 q 170 439 138 360 q 236 597 203 518 q 411 1013 314 785 q 422 1032 415 1025 q 440 1042 429 1039 q 471 1039 451 1046 q 513 1025 489 1033 q 558 1006 538 1017 q 592 981 579 994 q 599 950 604 967 l 256 36 z "},"'":{"ha":276,"x_min":40,"x_max":229,"o":"m 57 994 q 66 1028 58 1017 q 110 1040 74 1040 q 149 1040 126 1040 q 190 1036 171 1040 q 219 1019 208 1032 q 222 981 229 1007 q 211 935 218 961 q 197 882 204 910 q 181 828 189 854 q 164 781 172 801 q 149 751 157 765 q 118 736 142 736 q 95 738 107 736 q 79 739 83 739 q 51 749 63 740 q 43 794 40 758 l 57 994 z "},"":{"ha":879,"x_min":44,"x_max":833,"o":"m 733 390 q 803 286 774 342 q 833 164 833 231 q 811 76 832 117 q 740 8 790 35 q 676 -15 711 -7 q 605 -26 640 -22 q 535 -28 569 -29 q 472 -24 500 -26 q 371 22 396 -15 q 356 142 346 58 q 380 182 358 167 q 431 200 401 197 q 536 198 500 194 q 585 212 572 201 q 592 238 599 222 q 569 274 586 254 q 502 346 538 313 q 435 422 467 379 q 404 529 397 474 q 456 642 411 585 q 476 670 465 653 q 500 717 488 688 q 519 806 521 764 q 483 875 515 861 q 415 875 451 889 q 336 810 367 858 q 289 700 306 761 q 265 574 272 639 q 257 460 258 510 q 256 289 254 375 q 257 107 257 203 q 258 83 257 93 q 258 65 258 72 q 260 51 258 57 l 260 42 q 259 32 260 38 q 257 19 258 26 q 246 -6 254 6 q 218 -19 238 -17 q 174 -24 199 -22 q 125 -24 149 -26 q 84 -9 101 -21 q 64 29 67 3 q 49 307 53 168 q 56 588 44 446 q 90 754 63 667 q 172 910 117 842 q 272 992 213 960 q 396 1035 331 1024 q 527 1033 461 1046 q 647 981 593 1019 q 708 907 688 951 q 730 813 728 863 q 718 715 732 764 q 678 628 704 667 q 648 587 661 604 q 632 550 635 569 q 643 503 629 531 q 694 433 657 476 l 733 390 l 733 390 z "},"":{"ha":779,"x_min":38,"x_max":729,"o":"m 628 826 q 685 738 663 792 q 719 621 708 685 q 728 488 729 557 q 717 354 728 419 q 683 231 706 289 q 629 133 661 174 q 538 50 590 83 q 427 3 486 17 q 306 -3 368 -11 q 188 36 244 4 q 117 90 147 58 q 68 160 86 122 q 44 240 50 197 q 44 326 38 282 q 102 458 56 401 q 214 553 149 515 q 356 608 279 590 q 503 622 432 625 l 496 639 q 476 681 488 661 q 447 721 464 701 q 412 692 431 708 q 357 643 393 676 q 334 628 347 629 q 307 639 321 628 q 280 659 296 647 q 251 683 264 671 q 232 706 239 694 q 231 724 225 717 q 270 770 250 747 q 314 813 290 793 q 233 840 275 833 q 147 857 192 847 q 113 867 132 860 q 89 892 93 875 q 85 926 86 906 q 86 966 83 946 q 96 1005 89 986 q 117 1035 103 1024 q 144 1049 128 1043 q 183 1053 161 1054 q 331 1025 256 1049 q 497 949 406 1001 q 552 978 524 964 q 608 1004 581 992 l 614 1004 q 620 1004 617 1004 q 626 1003 624 1004 q 642 992 633 1000 q 658 968 651 985 q 674 933 667 951 q 684 899 681 915 q 685 868 688 882 q 672 847 683 854 q 656 840 668 844 q 628 826 644 835 m 517 438 q 448 428 490 436 q 367 403 406 421 q 301 357 328 385 q 281 288 275 329 q 296 251 283 267 q 326 225 308 235 q 367 215 344 215 q 411 228 389 215 q 457 267 438 242 q 490 323 476 293 q 509 383 503 353 q 517 438 515 414 z "},")":{"ha":557,"x_min":36,"x_max":511,"o":"m 72 885 q 61 915 57 894 q 78 960 65 936 q 110 1008 92 985 q 143 1047 129 1032 q 172 1063 154 1061 q 207 1054 189 1065 q 325 956 271 1013 q 420 833 379 900 q 485 689 461 767 q 510 525 508 611 q 488 347 511 429 q 423 195 465 264 q 322 72 381 126 q 193 -21 264 18 q 135 -39 164 -36 q 89 -19 106 -42 q 56 43 71 7 q 38 108 40 79 q 39 131 36 121 q 53 149 42 142 q 66 157 60 153 q 79 165 72 161 q 210 281 163 217 q 275 414 257 344 q 285 553 293 483 q 248 685 276 622 q 174 800 219 749 q 72 885 129 851 z "},"\"":{"ha":499,"x_min":36,"x_max":451,"o":"m 279 994 q 288 1028 281 1017 q 332 1040 296 1040 q 371 1040 349 1040 q 412 1036 393 1040 q 441 1019 431 1032 q 444 981 451 1007 q 433 935 440 961 q 419 882 426 910 q 403 828 411 854 q 386 781 394 801 q 372 751 379 765 q 340 736 364 736 q 317 738 329 736 q 301 739 306 739 q 274 749 285 740 q 265 794 263 758 l 279 994 m 53 994 q 62 1028 54 1017 q 106 1040 69 1040 q 144 1040 122 1040 q 185 1036 167 1040 q 215 1019 204 1032 q 218 981 225 1007 q 207 935 214 961 q 192 882 200 910 q 176 828 185 854 q 160 781 168 801 q 145 751 153 765 q 114 736 138 736 q 91 738 103 736 q 75 739 79 739 q 47 749 58 740 q 39 794 36 758 l 53 994 z "},".":{"ha":297,"x_min":44,"x_max":247,"o":"m 247 81 q 217 19 247 44 q 146 -7 188 -7 q 74 19 104 -7 q 44 81 44 44 q 74 144 44 118 q 146 171 104 171 q 217 144 188 171 q 247 81 247 118 z "},"":{"ha":615,"x_min":43,"x_max":569,"o":"m 60 515 q 536 515 297 522 q 551 507 544 514 q 563 488 558 500 q 568 454 567 476 q 569 410 569 433 q 565 368 569 388 q 553 335 561 349 q 529 318 544 322 q 497 317 521 317 q 440 320 474 318 q 367 325 407 322 q 285 331 326 328 q 206 335 244 333 q 138 340 168 338 q 71 343 101 342 q 60 346 65 342 q 52 358 56 349 q 47 383 49 367 q 44 422 46 400 q 43 465 43 444 q 47 501 43 486 q 60 515 51 515 m 388 636 q 362 584 388 606 q 300 563 336 563 q 239 584 264 563 q 214 636 214 606 q 239 691 214 668 q 300 714 264 714 q 362 691 336 714 q 388 636 388 668 m 388 213 q 362 159 388 181 q 300 138 336 138 q 239 159 264 138 q 214 213 214 181 q 239 267 214 244 q 300 289 264 289 q 362 267 336 289 q 388 213 388 244 z "},"C":{"ha":769,"x_min":31,"x_max":749,"o":"m 517 743 q 503 803 518 783 q 467 828 489 824 q 419 824 444 833 q 372 796 393 814 q 294 690 324 754 q 253 554 264 625 q 252 413 243 483 q 292 292 261 343 q 338 242 311 258 q 396 224 365 226 q 456 234 426 222 q 510 269 486 246 q 568 321 546 306 q 618 338 590 336 q 723 293 697 338 q 726 185 749 249 q 672 97 708 135 q 586 37 635 60 q 482 5 538 14 q 372 0 426 -4 q 269 23 318 4 q 186 74 221 42 q 118 156 147 110 q 69 255 89 203 q 40 363 50 307 q 31 476 31 419 q 85 724 33 604 q 221 932 136 843 q 313 1001 260 972 q 423 1038 367 1029 q 533 1032 479 1046 q 629 974 588 1018 q 681 897 661 940 q 710 811 700 854 q 715 758 715 783 q 703 711 714 733 q 656 672 688 683 q 592 664 624 660 q 538 688 561 668 q 517 743 515 708 z "},"":{"ha":1113,"x_min":25,"x_max":1071,"o":"m 1008 213 q 1060 198 1049 213 q 1068 139 1071 183 q 1065 88 1067 114 q 1057 41 1063 63 q 1043 4 1051 19 q 1021 -15 1035 -11 q 993 -16 1014 -18 q 943 -11 972 -14 q 778 -4 861 -4 q 604 -11 696 -4 q 560 -14 582 -14 q 517 -8 538 -14 q 479 13 496 -1 q 453 54 463 26 q 446 97 449 65 q 440 171 443 128 q 329 173 383 174 q 239 172 275 172 q 235 131 238 160 q 226 72 233 101 q 208 19 219 43 q 175 -6 196 -4 q 131 -8 156 -7 q 82 -3 106 -10 q 42 19 58 3 q 25 72 26 36 q 26 171 25 115 q 32 292 28 226 q 41 410 35 346 q 59 543 47 475 q 90 679 71 611 q 137 808 108 747 q 204 921 165 869 q 297 1007 243 972 q 401 1044 346 1036 q 513 1038 457 1053 q 529 1040 521 1039 q 547 1040 538 1040 q 665 1045 603 1043 q 791 1049 728 1047 q 915 1050 854 1050 q 1031 1050 976 1050 q 1039 1046 1035 1049 q 1054 1028 1047 1040 q 1066 982 1063 1013 q 1067 919 1069 951 q 1056 859 1065 886 q 1029 824 1046 832 q 999 822 1022 822 q 945 823 976 822 q 876 826 914 824 q 801 830 838 828 q 730 833 764 832 q 672 835 696 835 l 667 613 l 925 614 q 961 579 951 610 q 970 512 971 549 q 959 444 969 475 q 935 407 949 413 q 898 405 928 404 q 828 407 868 406 q 743 410 788 408 q 664 415 699 413 q 663 308 663 361 q 667 203 664 256 q 746 209 703 207 q 834 213 789 211 q 924 214 879 214 q 1008 213 969 214 m 440 389 q 442 597 440 493 q 447 806 443 701 q 441 806 444 806 q 435 807 438 807 q 377 778 407 807 q 322 695 347 750 q 275 560 296 640 q 244 378 254 479 q 342 385 293 382 q 440 389 392 388 z "},"":{"ha":1214,"x_min":38,"x_max":1171,"o":"m 758 740 q 920 752 843 765 q 1053 695 997 739 q 1140 578 1110 651 q 1161 413 1171 506 q 1151 382 1158 394 q 1129 367 1144 369 q 1100 363 1122 364 q 1047 361 1078 361 q 978 362 1015 361 q 903 364 940 363 q 807 368 851 367 q 735 372 763 369 q 740 307 733 339 q 761 249 746 275 q 801 207 776 224 q 864 188 826 190 q 922 199 893 185 q 975 246 951 213 q 1021 279 993 274 q 1075 274 1049 285 q 1119 240 1101 264 q 1138 186 1138 217 q 1117 117 1138 149 q 1067 62 1097 86 q 999 21 1036 38 q 929 -1 963 4 q 844 -8 888 -10 q 761 6 801 -6 q 722 19 738 13 q 703 5 715 11 q 671 -4 692 -1 q 626 -10 650 -7 q 582 -10 603 -12 q 544 -1 561 -8 q 519 21 528 6 q 458 8 489 14 q 396 -1 428 1 q 233 24 303 -10 q 118 117 163 57 q 56 254 74 176 q 48 413 38 332 q 98 568 58 493 q 208 697 138 643 q 377 763 285 750 q 563 750 469 775 q 599 757 574 758 q 635 754 615 756 q 674 751 654 753 q 710 744 693 749 q 736 732 726 739 l 758 740 m 529 549 q 418 564 467 574 q 336 523 369 554 q 285 447 303 492 q 264 356 267 401 q 274 272 261 311 q 318 215 288 233 q 395 205 349 196 q 507 264 442 214 q 515 406 511 335 q 529 549 518 476 m 763 508 q 961 513 861 508 q 928 578 954 558 q 872 596 903 599 q 810 570 840 593 q 763 508 779 547 z "},"":{"ha":769,"x_min":31,"x_max":749,"o":"m 517 743 q 503 803 518 783 q 467 828 489 824 q 419 824 444 833 q 372 796 393 814 q 294 690 324 754 q 253 554 264 625 q 252 413 243 483 q 292 292 261 343 q 338 242 311 258 q 396 224 365 226 q 456 234 426 222 q 510 269 486 246 q 568 321 546 306 q 618 338 590 336 q 723 293 697 338 q 726 185 749 249 q 670 96 708 133 q 583 35 632 58 q 478 4 535 13 q 368 0 422 -4 q 360 -22 364 -10 q 354 -49 357 -33 q 421 -49 389 -43 q 477 -69 453 -54 q 516 -108 501 -83 q 533 -164 531 -132 q 513 -256 538 -214 q 449 -318 489 -297 q 381 -337 419 -333 q 306 -325 342 -342 q 269 -290 282 -314 q 265 -232 256 -267 q 290 -206 272 -210 q 326 -208 308 -201 q 364 -212 346 -217 q 392 -196 382 -207 q 402 -172 403 -185 q 385 -150 401 -158 q 359 -146 375 -146 q 324 -147 343 -146 q 287 -150 306 -149 q 256 -151 268 -151 q 233 -137 240 -151 q 222 -105 225 -124 q 221 -67 219 -86 q 225 -39 222 -49 q 236 -4 232 -24 q 244 33 240 15 q 186 74 213 49 q 118 156 147 110 q 69 255 89 203 q 40 363 50 307 q 31 476 31 419 q 85 724 33 604 q 221 932 136 843 q 313 1001 260 972 q 423 1038 367 1029 q 533 1032 479 1046 q 629 974 588 1018 q 681 897 661 940 q 710 811 700 854 q 715 758 715 783 q 703 711 714 733 q 656 672 688 683 q 592 664 624 660 q 538 688 561 668 q 517 743 515 708 z "},"":{"ha":743,"x_min":42,"x_max":693,"o":"m 561 328 q 608 319 583 324 q 651 306 632 314 q 682 283 671 297 q 690 246 693 268 q 657 144 683 189 q 592 65 631 99 q 484 3 543 21 q 365 -8 425 -14 q 361 -22 363 -15 q 358 -35 360 -28 q 435 -47 403 -28 q 469 -103 467 -65 q 457 -158 472 -133 q 417 -194 442 -183 q 375 -207 399 -204 q 328 -199 351 -210 q 304 -178 313 -193 q 303 -144 296 -164 q 318 -128 307 -131 q 340 -129 329 -126 q 364 -132 353 -135 q 381 -122 375 -129 q 388 -108 388 -115 q 378 -94 388 -100 q 339 -94 365 -90 q 296 -96 313 -97 q 283 -87 288 -96 q 276 -68 278 -79 q 274 -46 274 -57 q 278 -29 275 -35 q 283 -12 281 -21 q 288 7 285 -3 q 226 36 254 18 q 171 78 197 54 q 81 204 113 131 q 45 357 49 278 q 66 515 42 436 q 143 657 90 593 q 249 742 186 710 q 379 781 311 775 q 513 765 447 788 q 626 683 578 742 q 658 633 642 664 q 674 574 674 603 q 663 538 674 554 q 636 510 653 522 q 600 491 619 499 q 564 481 581 483 q 513 481 528 476 q 496 501 499 485 q 474 561 490 539 q 435 591 457 583 q 388 593 413 599 q 340 571 363 588 q 285 505 306 547 q 261 413 265 463 q 267 316 257 364 q 304 235 278 268 q 360 197 329 203 q 419 203 390 190 q 470 242 447 215 q 506 303 493 269 q 528 326 513 322 q 561 328 543 331 z "},"":{"ha":938,"x_min":43,"x_max":897,"o":"m 471 -8 q 302 33 382 -8 q 161 154 222 75 q 73 322 103 229 q 43 515 43 415 q 73 712 43 619 q 161 878 103 804 q 302 999 222 957 q 471 1042 382 1042 q 640 999 561 1042 q 781 878 719 957 q 868 712 839 804 q 897 515 897 619 q 868 322 897 415 q 781 154 839 229 q 640 33 719 75 q 471 -8 561 -8 m 699 515 q 673 663 699 594 q 606 775 647 731 l 435 196 q 471 192 453 192 q 558 217 517 192 q 631 288 600 243 q 681 391 663 332 q 699 515 699 450 m 471 842 q 384 816 425 842 q 312 745 343 790 q 263 641 281 700 q 244 515 244 582 q 261 395 244 451 q 307 294 278 339 q 350 431 325 356 q 400 583 375 507 q 447 726 425 658 q 485 840 469 794 q 471 842 481 842 z "},"":{"ha":761,"x_min":31,"x_max":728,"o":"m 379 -10 q 244 21 307 -10 q 133 103 181 51 q 58 225 86 156 q 31 374 31 294 q 58 522 31 453 q 133 644 86 592 q 244 726 181 696 q 379 756 307 756 q 515 726 451 756 q 625 644 578 696 q 700 522 672 592 q 728 374 728 453 q 700 225 728 294 q 625 103 672 156 q 515 21 578 51 q 379 -10 451 -10 m 379 550 q 320 536 347 550 q 274 498 293 522 q 242 442 254 474 q 231 374 231 410 q 245 295 231 331 q 286 235 260 260 q 311 315 297 272 q 339 399 325 357 q 366 481 353 442 q 389 549 379 519 q 384 549 386 549 q 379 550 382 550 m 529 374 q 514 452 529 415 q 471 513 499 489 l 378 197 l 379 197 q 438 211 410 197 q 485 249 465 225 q 517 305 506 272 q 529 374 529 338 z "},"":{"ha":778,"x_min":32,"x_max":743,"o":"m 75 574 q 77 778 76 676 q 78 988 78 881 q 82 1008 76 999 q 95 1024 86 1017 q 124 1033 104 1031 q 157 1037 138 1035 q 196 1039 176 1039 q 233 1037 215 1039 q 261 1028 250 1035 q 451 988 368 1025 q 594 892 535 951 q 689 755 654 832 q 733 594 724 678 q 727 424 743 510 q 669 262 711 339 q 558 122 628 185 q 393 19 489 58 q 293 -10 346 0 q 188 -17 240 -19 q 113 3 147 -14 q 72 65 78 19 q 71 128 71 81 q 72 243 71 176 q 72 356 72 300 q 74 468 72 411 q 65 469 68 468 q 60 469 63 469 l 54 469 q 46 471 50 468 q 40 478 43 474 q 35 493 36 482 q 33 517 33 503 q 32 543 32 531 q 35 565 32 556 q 46 574 39 574 l 75 574 m 296 226 q 420 304 369 254 q 498 415 471 354 q 526 539 525 475 q 502 660 528 603 q 422 760 476 717 q 283 822 368 804 q 288 699 286 760 q 290 575 289 638 q 365 575 328 575 q 440 574 403 575 q 453 568 447 572 q 461 558 457 565 q 465 538 465 550 q 463 484 467 510 q 433 454 460 458 q 384 455 424 453 q 293 460 344 457 l 296 226 z "},"":{"ha":849,"x_min":21,"x_max":821,"o":"m 321 1347 q 388 1301 357 1322 q 450 1258 419 1279 q 511 1215 481 1238 q 576 1167 542 1193 q 582 1156 579 1161 q 583 1142 583 1150 q 576 1124 583 1135 q 547 1085 564 1103 q 508 1076 531 1067 q 443 1124 472 1101 q 385 1170 414 1147 q 328 1217 357 1193 q 267 1267 300 1242 q 263 1272 264 1268 q 261 1281 261 1275 q 267 1294 261 1286 q 280 1313 272 1303 q 295 1333 288 1324 q 310 1347 303 1342 q 321 1347 317 1351 m 578 1010 q 668 935 631 979 q 731 838 706 890 q 772 726 757 785 q 796 607 788 667 q 818 368 815 489 q 814 125 821 247 q 808 68 811 90 q 798 32 806 46 q 776 10 790 18 q 738 -6 763 1 q 688 -10 714 -8 q 640 4 663 -11 q 606 51 619 18 q 590 147 592 85 l 590 161 q 508 168 556 165 q 410 172 460 171 q 313 172 360 172 q 235 172 267 172 q 231 131 233 160 q 222 72 229 101 q 203 19 215 43 q 171 -6 192 -4 q 126 -8 151 -7 q 78 -3 101 -10 q 38 19 54 3 q 21 72 22 36 q 22 171 21 115 q 28 292 24 226 q 37 410 31 346 q 55 543 43 475 q 85 679 67 611 q 133 808 104 747 q 200 921 161 869 q 293 1007 239 972 q 433 1047 357 1047 q 578 1010 510 1047 m 240 378 q 415 388 328 385 q 589 389 501 392 q 581 565 593 488 q 546 697 568 643 q 493 778 524 750 q 431 807 463 807 q 373 778 403 807 q 317 695 343 750 q 271 560 292 640 q 240 378 250 479 z "},"":{"ha":849,"x_min":21,"x_max":821,"o":"m 525 1347 q 538 1347 531 1351 q 552 1333 544 1342 q 567 1313 560 1324 q 581 1294 575 1303 q 585 1272 588 1281 q 581 1267 583 1268 q 519 1218 547 1242 q 462 1172 490 1194 q 404 1125 433 1149 q 340 1076 375 1101 q 301 1085 318 1067 q 271 1124 285 1103 q 264 1156 258 1143 q 271 1167 265 1161 q 336 1215 306 1193 q 397 1258 367 1238 q 458 1301 428 1279 q 525 1347 489 1322 m 578 1010 q 668 935 631 979 q 731 838 706 890 q 772 726 757 785 q 796 607 788 667 q 818 368 815 489 q 814 125 821 247 q 808 68 811 90 q 798 32 806 46 q 776 10 790 18 q 738 -6 763 1 q 688 -10 714 -8 q 640 4 663 -11 q 606 51 619 18 q 590 147 592 85 l 590 161 q 508 168 556 165 q 410 172 460 171 q 313 172 360 172 q 235 172 267 172 q 231 131 233 160 q 222 72 229 101 q 203 19 215 43 q 171 -6 192 -4 q 126 -8 151 -7 q 78 -3 101 -10 q 38 19 54 3 q 21 72 22 36 q 22 171 21 115 q 28 292 24 226 q 37 410 31 346 q 55 543 43 475 q 85 679 67 611 q 133 808 104 747 q 200 921 161 869 q 293 1007 239 972 q 433 1047 357 1047 q 578 1010 510 1047 m 240 378 q 415 388 328 385 q 589 389 501 392 q 581 565 593 488 q 546 697 568 643 q 493 778 524 750 q 431 807 463 807 q 373 778 403 807 q 317 695 343 750 q 271 560 292 640 q 240 378 250 479 z "},"":{"ha":849,"x_min":21,"x_max":821,"o":"m 626 1151 q 625 1140 626 1146 q 619 1128 622 1135 q 604 1115 615 1122 q 561 1090 583 1101 q 526 1092 539 1079 q 518 1108 524 1096 q 504 1140 513 1121 q 487 1181 496 1158 q 468 1226 478 1204 q 433 1178 451 1203 q 399 1135 414 1154 q 364 1090 381 1111 q 328 1086 353 1081 q 281 1104 304 1092 q 242 1133 257 1117 q 235 1164 228 1150 l 374 1388 q 440 1389 410 1389 q 488 1387 465 1389 q 513 1382 510 1385 l 626 1151 m 578 1010 q 668 935 631 979 q 731 838 706 890 q 772 726 757 785 q 796 607 788 667 q 818 368 815 489 q 814 125 821 247 q 808 68 811 90 q 798 32 806 46 q 776 10 790 18 q 738 -6 763 1 q 688 -10 714 -8 q 640 4 663 -11 q 606 51 619 18 q 590 147 592 85 l 590 161 q 508 168 556 165 q 410 172 460 171 q 313 172 360 172 q 235 172 267 172 q 231 131 233 160 q 222 72 229 101 q 203 19 215 43 q 171 -6 192 -4 q 126 -8 151 -7 q 78 -3 101 -10 q 38 19 54 3 q 21 72 22 36 q 22 171 21 115 q 28 292 24 226 q 37 410 31 346 q 55 543 43 475 q 85 679 67 611 q 133 808 104 747 q 200 921 161 869 q 293 1007 239 972 q 433 1047 357 1047 q 578 1010 510 1047 m 240 378 q 415 388 328 385 q 589 389 501 392 q 581 565 593 488 q 546 697 568 643 q 493 778 524 750 q 431 807 463 807 q 373 778 403 807 q 317 695 343 750 q 271 560 292 640 q 240 378 250 479 z "},"":{"ha":849,"x_min":21,"x_max":821,"o":"m 221 1156 q 251 1249 231 1203 q 307 1322 271 1294 q 377 1344 339 1346 q 442 1304 415 1343 q 458 1268 453 1286 q 475 1231 464 1250 q 498 1222 485 1213 q 514 1267 511 1232 q 527 1291 514 1283 q 554 1299 540 1299 q 611 1288 590 1299 q 631 1242 632 1276 q 614 1163 629 1200 q 568 1108 599 1126 q 494 1092 535 1089 q 429 1121 453 1094 q 402 1156 414 1138 q 375 1190 390 1175 q 358 1198 365 1200 q 344 1188 350 1196 q 333 1166 338 1179 q 325 1140 329 1153 q 318 1126 322 1132 q 310 1118 314 1121 q 288 1115 303 1114 q 257 1121 272 1115 q 230 1135 242 1126 q 221 1156 218 1144 m 578 1010 q 668 935 631 979 q 731 838 706 890 q 772 726 757 785 q 796 607 788 667 q 818 368 815 489 q 814 125 821 247 q 808 68 811 90 q 798 32 806 46 q 776 10 790 18 q 738 -6 763 1 q 688 -10 714 -8 q 640 4 663 -11 q 606 51 619 18 q 590 147 592 85 l 590 161 q 508 168 556 165 q 410 172 460 171 q 313 172 360 172 q 235 172 267 172 q 231 131 233 160 q 222 72 229 101 q 203 19 215 43 q 171 -6 192 -4 q 126 -8 151 -7 q 78 -3 101 -10 q 38 19 54 3 q 21 72 22 36 q 22 171 21 115 q 28 292 24 226 q 37 410 31 346 q 55 543 43 475 q 85 679 67 611 q 133 808 104 747 q 200 921 161 869 q 293 1007 239 972 q 433 1047 357 1047 q 578 1010 510 1047 m 240 378 q 415 388 328 385 q 589 389 501 392 q 581 565 593 488 q 546 697 568 643 q 493 778 524 750 q 431 807 463 807 q 373 778 403 807 q 317 695 343 750 q 271 560 292 640 q 240 378 250 479 z "},"":{"ha":849,"x_min":21,"x_max":821,"o":"m 408 1200 q 382 1138 408 1164 q 318 1111 356 1111 q 254 1138 281 1111 q 228 1200 228 1164 q 254 1265 228 1238 q 318 1292 281 1292 q 382 1265 356 1292 q 408 1200 408 1238 m 621 1200 q 594 1138 621 1164 q 531 1111 568 1111 q 467 1138 493 1111 q 440 1200 440 1164 q 467 1265 440 1238 q 531 1292 493 1292 q 594 1265 568 1292 q 621 1200 621 1238 m 578 1010 q 668 935 631 979 q 731 838 706 890 q 772 726 757 785 q 796 607 788 667 q 818 368 815 489 q 814 125 821 247 q 808 68 811 90 q 798 32 806 46 q 776 10 790 18 q 738 -6 763 1 q 688 -10 714 -8 q 640 4 663 -11 q 606 51 619 18 q 590 147 592 85 l 590 161 q 508 168 556 165 q 410 172 460 171 q 313 172 360 172 q 235 172 267 172 q 231 131 233 160 q 222 72 229 101 q 203 19 215 43 q 171 -6 192 -4 q 126 -8 151 -7 q 78 -3 101 -10 q 38 19 54 3 q 21 72 22 36 q 22 171 21 115 q 28 292 24 226 q 37 410 31 346 q 55 543 43 475 q 85 679 67 611 q 133 808 104 747 q 200 921 161 869 q 293 1007 239 972 q 433 1047 357 1047 q 578 1010 510 1047 m 240 378 q 415 388 328 385 q 589 389 501 392 q 581 565 593 488 q 546 697 568 643 q 493 778 524 750 q 431 807 463 807 q 373 778 403 807 q 317 695 343 750 q 271 560 292 640 q 240 378 250 479 z "},"":{"ha":849,"x_min":21,"x_max":821,"o":"m 424 1090 q 371 1101 396 1090 q 327 1131 346 1113 q 298 1175 308 1150 q 288 1228 288 1200 q 327 1324 288 1285 q 424 1364 367 1364 q 522 1324 482 1364 q 561 1228 561 1285 q 551 1175 561 1200 q 522 1131 540 1150 q 478 1101 503 1113 q 424 1090 453 1090 m 424 1269 q 394 1258 407 1269 q 382 1228 382 1246 q 394 1197 382 1210 q 424 1185 407 1185 q 454 1197 442 1185 q 467 1228 467 1210 q 454 1258 467 1246 q 424 1269 442 1269 m 578 1010 q 668 935 631 979 q 731 838 706 890 q 772 726 757 785 q 796 607 788 667 q 818 368 815 489 q 814 125 821 247 q 808 68 811 90 q 798 32 806 46 q 776 10 790 18 q 738 -6 763 1 q 688 -10 714 -8 q 640 4 663 -11 q 606 51 619 18 q 590 147 592 85 l 590 161 q 508 168 556 165 q 410 172 460 171 q 313 172 360 172 q 235 172 267 172 q 231 131 233 160 q 222 72 229 101 q 203 19 215 43 q 171 -6 192 -4 q 126 -8 151 -7 q 78 -3 101 -10 q 38 19 54 3 q 21 72 22 36 q 22 171 21 115 q 28 292 24 226 q 37 410 31 346 q 55 543 43 475 q 85 679 67 611 q 133 808 104 747 q 200 921 161 869 q 293 1007 239 972 q 433 1047 357 1047 q 578 1010 510 1047 m 240 378 q 415 388 328 385 q 589 389 501 392 q 581 565 593 488 q 546 697 568 643 q 493 778 524 750 q 431 807 463 807 q 373 778 403 807 q 317 695 343 750 q 271 560 292 640 q 240 378 250 479 z "},"":{"ha":713,"x_min":40,"x_max":671,"o":"m 253 1375 q 320 1328 289 1350 q 382 1286 351 1307 q 443 1243 413 1265 q 508 1194 474 1221 q 514 1183 511 1189 q 515 1170 515 1178 q 508 1151 515 1163 q 479 1113 496 1131 q 440 1104 463 1094 q 375 1152 404 1129 q 317 1198 346 1175 q 260 1245 289 1221 q 199 1294 232 1269 q 194 1300 196 1296 q 193 1308 193 1303 q 199 1322 193 1314 q 212 1341 204 1331 q 227 1360 219 1351 q 242 1374 235 1369 q 253 1375 249 1379 m 608 213 q 660 198 649 213 q 668 139 671 183 q 665 88 667 114 q 657 41 663 63 q 643 4 651 19 q 621 -15 635 -11 q 593 -16 614 -18 q 543 -11 572 -14 q 378 -4 461 -4 q 204 -11 296 -4 q 160 -14 182 -14 q 117 -8 138 -14 q 79 13 96 -1 q 53 54 63 26 q 44 121 47 71 q 40 240 40 171 q 42 610 40 424 q 57 979 43 796 q 85 1027 57 1014 q 147 1040 113 1040 q 265 1045 203 1043 q 391 1049 328 1047 q 515 1050 454 1050 q 631 1050 576 1050 q 639 1046 635 1049 q 654 1028 647 1040 q 666 982 663 1013 q 667 919 669 951 q 656 859 665 886 q 629 824 646 832 q 599 822 622 822 q 545 823 576 822 q 476 826 514 824 q 401 830 438 828 q 330 833 364 832 q 272 835 296 835 l 267 613 l 525 614 q 561 579 551 610 q 570 512 571 549 q 559 444 569 475 q 535 407 549 413 q 498 405 528 404 q 428 407 468 406 q 343 410 388 408 q 264 415 299 413 q 263 308 263 361 q 267 203 264 256 q 346 209 303 207 q 434 213 389 211 q 524 214 479 214 q 608 213 569 214 z "},"":{"ha":713,"x_min":40,"x_max":671,"o":"m 457 1365 q 469 1365 463 1369 q 484 1351 476 1360 q 499 1331 492 1342 q 513 1313 507 1321 q 517 1290 519 1299 q 513 1285 515 1286 q 451 1236 479 1260 q 394 1190 422 1213 q 336 1143 365 1167 q 272 1094 307 1119 q 233 1103 250 1085 q 203 1142 217 1121 q 196 1174 190 1161 q 203 1185 197 1179 q 268 1233 238 1211 q 329 1276 299 1256 q 390 1319 360 1297 q 457 1365 421 1340 m 608 213 q 660 198 649 213 q 668 139 671 183 q 665 88 667 114 q 657 41 663 63 q 643 4 651 19 q 621 -15 635 -11 q 593 -16 614 -18 q 543 -11 572 -14 q 378 -4 461 -4 q 204 -11 296 -4 q 160 -14 182 -14 q 117 -8 138 -14 q 79 13 96 -1 q 53 54 63 26 q 44 121 47 71 q 40 240 40 171 q 42 610 40 424 q 57 979 43 796 q 85 1027 57 1014 q 147 1040 113 1040 q 265 1045 203 1043 q 391 1049 328 1047 q 515 1050 454 1050 q 631 1050 576 1050 q 639 1046 635 1049 q 654 1028 647 1040 q 666 982 663 1013 q 667 919 669 951 q 656 859 665 886 q 629 824 646 832 q 599 822 622 822 q 545 823 576 822 q 476 826 514 824 q 401 830 438 828 q 330 833 364 832 q 272 835 296 835 l 267 613 l 525 614 q 561 579 551 610 q 570 512 571 549 q 559 444 569 475 q 535 407 549 413 q 498 405 528 404 q 428 407 468 406 q 343 410 388 408 q 264 415 299 413 q 263 308 263 361 q 267 203 264 256 q 346 209 303 207 q 434 213 389 211 q 524 214 479 214 q 608 213 569 214 z "},"":{"ha":713,"x_min":40,"x_max":671,"o":"m 558 1154 q 557 1143 558 1149 q 551 1131 554 1138 q 536 1118 547 1125 q 493 1093 515 1104 q 458 1094 471 1082 q 450 1111 456 1099 q 436 1142 444 1124 q 419 1184 428 1161 q 400 1229 410 1207 q 365 1181 383 1206 q 331 1138 346 1157 q 296 1093 313 1114 q 260 1089 285 1083 q 213 1107 236 1094 q 174 1136 189 1119 q 167 1167 160 1153 l 306 1390 q 372 1392 342 1392 q 419 1390 397 1392 q 444 1385 442 1388 l 558 1154 m 608 213 q 660 198 649 213 q 668 139 671 183 q 665 88 667 114 q 657 41 663 63 q 643 4 651 19 q 621 -15 635 -11 q 593 -16 614 -18 q 543 -11 572 -14 q 378 -4 461 -4 q 204 -11 296 -4 q 160 -14 182 -14 q 117 -8 138 -14 q 79 13 96 -1 q 53 54 63 26 q 44 121 47 71 q 40 240 40 171 q 42 610 40 424 q 57 979 43 796 q 85 1027 57 1014 q 147 1040 113 1040 q 265 1045 203 1043 q 391 1049 328 1047 q 515 1050 454 1050 q 631 1050 576 1050 q 639 1046 635 1049 q 654 1028 647 1040 q 666 982 663 1013 q 667 919 669 951 q 656 859 665 886 q 629 824 646 832 q 599 822 622 822 q 545 823 576 822 q 476 826 514 824 q 401 830 438 828 q 330 833 364 832 q 272 835 296 835 l 267 613 l 525 614 q 561 579 551 610 q 570 512 571 549 q 559 444 569 475 q 535 407 549 413 q 498 405 528 404 q 428 407 468 406 q 343 410 388 408 q 264 415 299 413 q 263 308 263 361 q 267 203 264 256 q 346 209 303 207 q 434 213 389 211 q 524 214 479 214 q 608 213 569 214 z "},"":{"ha":713,"x_min":40,"x_max":671,"o":"m 340 1183 q 314 1121 340 1147 q 250 1094 288 1094 q 186 1121 213 1094 q 160 1183 160 1147 q 186 1248 160 1221 q 250 1275 213 1275 q 314 1248 288 1275 q 340 1183 340 1221 m 553 1183 q 526 1121 553 1147 q 463 1094 500 1094 q 399 1121 425 1094 q 372 1183 372 1147 q 399 1248 372 1221 q 463 1275 425 1275 q 526 1248 500 1275 q 553 1183 553 1221 m 608 213 q 660 198 649 213 q 668 139 671 183 q 665 88 667 114 q 657 41 663 63 q 643 4 651 19 q 621 -15 635 -11 q 593 -16 614 -18 q 543 -11 572 -14 q 378 -4 461 -4 q 204 -11 296 -4 q 160 -14 182 -14 q 117 -8 138 -14 q 79 13 96 -1 q 53 54 63 26 q 44 121 47 71 q 40 240 40 171 q 42 610 40 424 q 57 979 43 796 q 85 1027 57 1014 q 147 1040 113 1040 q 265 1045 203 1043 q 391 1049 328 1047 q 515 1050 454 1050 q 631 1050 576 1050 q 639 1046 635 1049 q 654 1028 647 1040 q 666 982 663 1013 q 667 919 669 951 q 656 859 665 886 q 629 824 646 832 q 599 822 622 822 q 545 823 576 822 q 476 826 514 824 q 401 830 438 828 q 330 833 364 832 q 272 835 296 835 l 267 613 l 525 614 q 561 579 551 610 q 570 512 571 549 q 559 444 569 475 q 535 407 549 413 q 498 405 528 404 q 428 407 468 406 q 343 410 388 408 q 264 415 299 413 q 263 308 263 361 q 267 203 264 256 q 346 209 303 207 q 434 213 389 211 q 524 214 479 214 q 608 213 569 214 z "},"":{"ha":307,"x_min":6,"x_max":328,"o":"m 65 1365 q 133 1319 101 1340 q 194 1276 164 1297 q 256 1233 225 1256 q 321 1185 286 1211 q 326 1174 324 1179 q 328 1160 328 1168 q 321 1142 328 1153 q 292 1103 308 1121 q 253 1094 275 1085 q 188 1142 217 1119 q 130 1188 158 1165 q 73 1235 101 1211 q 11 1285 44 1260 q 7 1290 8 1286 q 6 1299 6 1293 q 11 1313 6 1304 q 24 1331 17 1321 q 40 1351 32 1342 q 54 1365 47 1360 q 65 1365 61 1369 m 264 61 q 254 31 261 44 q 233 9 247 19 q 196 -4 219 -1 q 145 -8 171 -7 q 97 -3 119 -10 q 59 19 75 3 q 39 67 43 35 q 37 131 36 82 q 39 247 38 179 q 43 397 40 315 q 49 563 46 479 q 67 996 56 758 q 69 1018 64 1008 q 82 1033 72 1026 q 111 1040 92 1039 q 156 1041 131 1040 q 206 1039 182 1042 q 246 1028 229 1036 q 263 1003 263 1019 l 264 61 z "},"":{"ha":307,"x_min":-11,"x_max":318,"o":"m 256 1347 q 268 1347 261 1351 q 283 1333 275 1342 q 298 1313 290 1324 q 311 1294 306 1303 q 315 1272 318 1281 q 311 1267 314 1268 q 249 1218 278 1242 q 192 1172 221 1194 q 135 1125 164 1149 q 71 1076 106 1101 q 32 1085 49 1067 q 1 1124 15 1103 q -6 1156 -11 1143 q 1 1167 -4 1161 q 67 1215 36 1193 q 128 1258 97 1238 q 189 1301 158 1279 q 256 1347 219 1322 m 264 61 q 254 31 261 44 q 233 9 247 19 q 196 -4 219 -1 q 145 -8 171 -7 q 97 -3 119 -10 q 59 19 75 3 q 39 67 43 35 q 37 131 36 82 q 39 247 38 179 q 43 397 40 315 q 49 563 46 479 q 67 996 56 758 q 69 1018 64 1008 q 82 1033 72 1026 q 111 1040 92 1039 q 156 1041 131 1040 q 206 1039 182 1042 q 246 1028 229 1036 q 263 1003 263 1019 l 264 61 z "},"":{"ha":307,"x_min":-42,"x_max":357,"o":"m 357 1143 q 356 1132 357 1138 q 349 1120 353 1126 q 335 1107 346 1114 q 292 1082 314 1093 q 257 1083 269 1071 q 249 1100 254 1088 q 235 1131 243 1113 q 217 1173 226 1150 q 199 1218 208 1196 q 163 1170 182 1194 q 129 1126 144 1146 q 94 1082 111 1103 q 59 1078 83 1072 q 11 1096 35 1083 q -27 1125 -12 1108 q -35 1156 -42 1142 l 104 1379 q 171 1381 140 1381 q 218 1378 196 1381 q 243 1374 240 1376 l 357 1143 m 264 61 q 254 31 261 44 q 233 9 247 19 q 196 -4 219 -1 q 145 -8 171 -7 q 97 -3 119 -10 q 59 19 75 3 q 39 67 43 35 q 37 131 36 82 q 39 247 38 179 q 43 397 40 315 q 49 563 46 479 q 67 996 56 758 q 69 1018 64 1008 q 82 1033 72 1026 q 111 1040 92 1039 q 156 1041 131 1040 q 206 1039 182 1042 q 246 1028 229 1036 q 263 1003 263 1019 l 264 61 z "},"":{"ha":307,"x_min":-31,"x_max":363,"o":"m 150 1176 q 124 1114 150 1140 q 60 1088 97 1088 q -4 1114 22 1088 q -31 1176 -31 1140 q -4 1241 -31 1214 q 60 1268 22 1268 q 124 1241 97 1268 q 150 1176 150 1214 m 363 1176 q 336 1114 363 1140 q 272 1088 310 1088 q 208 1114 235 1088 q 182 1176 182 1140 q 208 1241 182 1214 q 272 1268 235 1268 q 336 1241 310 1268 q 363 1176 363 1214 m 264 61 q 254 31 261 44 q 233 9 247 19 q 196 -4 219 -1 q 145 -8 171 -7 q 97 -3 119 -10 q 59 19 75 3 q 39 67 43 35 q 37 131 36 82 q 39 247 38 179 q 43 397 40 315 q 49 563 46 479 q 67 996 56 758 q 69 1018 64 1008 q 82 1033 72 1026 q 111 1040 92 1039 q 156 1041 131 1040 q 206 1039 182 1042 q 246 1028 229 1036 q 263 1003 263 1019 l 264 61 z "},"":{"ha":893,"x_min":42,"x_max":858,"o":"m 243 1150 q 273 1243 253 1197 q 329 1317 293 1289 q 399 1339 361 1340 q 464 1299 438 1338 q 481 1263 475 1281 q 497 1225 486 1244 q 520 1217 507 1207 q 536 1261 533 1226 q 549 1285 536 1278 q 576 1293 563 1293 q 633 1282 613 1293 q 653 1236 654 1271 q 636 1158 651 1194 q 590 1103 621 1121 q 516 1086 557 1083 q 451 1115 475 1089 q 424 1151 436 1132 q 397 1185 413 1169 q 380 1192 388 1194 q 366 1182 372 1190 q 356 1160 360 1174 q 347 1135 351 1147 q 340 1121 344 1126 q 332 1113 336 1115 q 310 1109 325 1108 q 279 1115 294 1110 q 252 1130 264 1121 q 243 1150 240 1139 m 857 965 q 858 902 858 950 q 858 786 858 854 q 855 637 857 718 q 850 474 853 556 q 835 46 844 281 q 831 24 836 33 q 816 8 826 15 q 786 1 806 1 q 738 -1 765 1 q 681 -1 710 -3 q 628 9 653 0 q 589 40 604 18 q 549 101 578 54 q 488 213 521 147 q 375 426 432 319 q 260 646 318 532 l 269 64 q 261 33 268 47 q 241 10 254 21 q 204 -4 228 -1 q 153 -8 179 -7 q 105 -4 128 -10 q 66 17 82 1 q 46 64 50 32 q 42 128 43 79 q 42 244 42 176 q 43 394 42 313 q 46 560 44 476 q 56 993 50 756 q 60 1015 54 1006 q 73 1031 64 1024 q 101 1039 82 1038 q 140 1042 113 1040 q 195 1043 167 1043 q 247 1039 224 1043 q 276 1025 271 1035 q 453 728 367 876 q 625 428 540 579 l 632 972 q 642 1003 633 989 q 663 1025 649 1014 q 701 1039 676 1036 q 752 1041 726 1040 q 800 1035 778 1042 q 838 1013 822 1029 q 857 965 853 997 z "},"":{"ha":938,"x_min":43,"x_max":897,"o":"m 365 1344 q 433 1298 401 1319 q 494 1256 464 1276 q 556 1213 525 1235 q 621 1164 586 1190 q 626 1153 624 1158 q 628 1140 628 1147 q 621 1121 628 1132 q 592 1082 608 1100 q 553 1074 575 1064 q 488 1122 517 1099 q 430 1167 458 1144 q 373 1215 401 1190 q 311 1264 344 1239 q 307 1269 308 1265 q 306 1278 306 1272 q 311 1292 306 1283 q 324 1310 317 1300 q 340 1330 332 1321 q 354 1344 347 1339 q 365 1344 361 1349 m 471 -8 q 302 33 382 -8 q 161 154 222 75 q 73 322 103 229 q 43 515 43 415 q 73 712 43 619 q 161 878 103 804 q 302 999 222 957 q 471 1042 382 1042 q 640 999 561 1042 q 781 878 719 957 q 868 712 839 804 q 897 515 897 619 q 868 322 897 415 q 781 154 839 229 q 640 33 719 75 q 471 -8 561 -8 m 471 842 q 384 816 425 842 q 312 745 343 790 q 263 641 281 700 q 244 515 244 582 q 263 391 244 450 q 312 288 281 332 q 384 217 343 243 q 471 192 425 192 q 558 217 517 192 q 631 288 600 243 q 681 391 663 332 q 699 515 699 450 q 681 641 699 582 q 631 745 663 700 q 558 816 600 790 q 471 842 517 842 z "},"":{"ha":938,"x_min":43,"x_max":897,"o":"m 569 1365 q 582 1365 575 1369 q 597 1351 589 1360 q 612 1331 604 1342 q 625 1313 619 1321 q 629 1290 632 1299 q 625 1285 628 1286 q 563 1236 592 1260 q 506 1190 535 1213 q 449 1143 478 1167 q 385 1094 419 1119 q 346 1103 363 1085 q 315 1142 329 1121 q 308 1174 303 1161 q 315 1185 310 1179 q 381 1233 350 1211 q 442 1276 411 1256 q 503 1319 472 1297 q 569 1365 533 1340 m 471 -8 q 302 33 382 -8 q 161 154 222 75 q 73 322 103 229 q 43 515 43 415 q 73 712 43 619 q 161 878 103 804 q 302 999 222 957 q 471 1042 382 1042 q 640 999 561 1042 q 781 878 719 957 q 868 712 839 804 q 897 515 897 619 q 868 322 897 415 q 781 154 839 229 q 640 33 719 75 q 471 -8 561 -8 m 471 842 q 384 816 425 842 q 312 745 343 790 q 263 641 281 700 q 244 515 244 582 q 263 391 244 450 q 312 288 281 332 q 384 217 343 243 q 471 192 425 192 q 558 217 517 192 q 631 288 600 243 q 681 391 663 332 q 699 515 699 450 q 681 641 699 582 q 631 745 663 700 q 558 816 600 790 q 471 842 517 842 z "},"":{"ha":938,"x_min":43,"x_max":897,"o":"m 671 1142 q 669 1131 671 1136 q 663 1119 667 1125 q 649 1106 660 1113 q 606 1081 628 1092 q 571 1082 583 1069 q 563 1099 568 1086 q 549 1130 557 1111 q 531 1172 540 1149 q 513 1217 522 1194 q 477 1169 496 1193 q 443 1125 458 1144 q 408 1081 425 1101 q 373 1076 397 1071 q 325 1094 349 1082 q 287 1124 301 1107 q 279 1154 272 1140 l 418 1378 q 485 1379 454 1379 q 532 1377 510 1379 q 557 1372 554 1375 l 671 1142 m 471 -8 q 302 33 382 -8 q 161 154 222 75 q 73 322 103 229 q 43 515 43 415 q 73 712 43 619 q 161 878 103 804 q 302 999 222 957 q 471 1042 382 1042 q 640 999 561 1042 q 781 878 719 957 q 868 712 839 804 q 897 515 897 619 q 868 322 897 415 q 781 154 839 229 q 640 33 719 75 q 471 -8 561 -8 m 471 842 q 384 816 425 842 q 312 745 343 790 q 263 641 281 700 q 244 515 244 582 q 263 391 244 450 q 312 288 281 332 q 384 217 343 243 q 471 192 425 192 q 558 217 517 192 q 631 288 600 243 q 681 391 663 332 q 699 515 699 450 q 681 641 699 582 q 631 745 663 700 q 558 816 600 790 q 471 842 517 842 z "},"":{"ha":938,"x_min":43,"x_max":897,"o":"m 265 1154 q 295 1247 275 1201 q 351 1321 315 1293 q 422 1343 383 1344 q 486 1303 460 1342 q 503 1267 497 1285 q 519 1229 508 1249 q 542 1221 529 1211 q 558 1265 556 1231 q 572 1290 558 1282 q 599 1297 585 1297 q 656 1286 635 1297 q 675 1240 676 1275 q 658 1162 674 1199 q 613 1107 643 1125 q 538 1090 579 1088 q 474 1119 497 1093 q 447 1155 458 1136 q 419 1189 435 1174 q 402 1197 410 1199 q 388 1186 394 1194 q 378 1165 382 1178 q 369 1139 374 1151 q 363 1125 367 1131 q 354 1117 358 1119 q 332 1113 347 1113 q 301 1119 317 1114 q 274 1134 286 1125 q 265 1154 263 1143 m 471 -8 q 302 33 382 -8 q 161 154 222 75 q 73 322 103 229 q 43 515 43 415 q 73 712 43 619 q 161 878 103 804 q 302 999 222 957 q 471 1042 382 1042 q 640 999 561 1042 q 781 878 719 957 q 868 712 839 804 q 897 515 897 619 q 868 322 897 415 q 781 154 839 229 q 640 33 719 75 q 471 -8 561 -8 m 471 842 q 384 816 425 842 q 312 745 343 790 q 263 641 281 700 q 244 515 244 582 q 263 391 244 450 q 312 288 281 332 q 384 217 343 243 q 471 192 425 192 q 558 217 517 192 q 631 288 600 243 q 681 391 663 332 q 699 515 699 450 q 681 641 699 582 q 631 745 663 700 q 558 816 600 790 q 471 842 517 842 z "},"":{"ha":938,"x_min":43,"x_max":897,"o":"m 453 1165 q 426 1103 453 1129 q 363 1076 400 1076 q 299 1103 325 1076 q 272 1165 272 1129 q 299 1230 272 1203 q 363 1257 325 1257 q 426 1230 400 1257 q 453 1165 453 1203 m 665 1165 q 639 1103 665 1129 q 575 1076 613 1076 q 511 1103 538 1076 q 485 1165 485 1129 q 511 1230 485 1203 q 575 1257 538 1257 q 639 1230 613 1257 q 665 1165 665 1203 m 471 -8 q 302 33 382 -8 q 161 154 222 75 q 73 322 103 229 q 43 515 43 415 q 73 712 43 619 q 161 878 103 804 q 302 999 222 957 q 471 1042 382 1042 q 640 999 561 1042 q 781 878 719 957 q 868 712 839 804 q 897 515 897 619 q 868 322 897 415 q 781 154 839 229 q 640 33 719 75 q 471 -8 561 -8 m 471 842 q 384 816 425 842 q 312 745 343 790 q 263 641 281 700 q 244 515 244 582 q 263 391 244 450 q 312 288 281 332 q 384 217 343 243 q 471 192 425 192 q 558 217 517 192 q 631 288 600 243 q 681 391 663 332 q 699 515 699 450 q 681 641 699 582 q 631 745 663 700 q 558 816 600 790 q 471 842 517 842 z "},"":{"ha":932,"x_min":38,"x_max":885,"o":"m 363 1350 q 430 1303 399 1325 q 492 1261 461 1282 q 553 1218 522 1240 q 618 1169 583 1196 q 624 1158 621 1164 q 625 1145 625 1153 q 618 1126 625 1138 q 589 1088 606 1106 q 550 1079 572 1069 q 485 1127 514 1104 q 427 1173 456 1150 q 370 1220 399 1196 q 308 1269 342 1244 q 304 1275 306 1271 q 303 1283 303 1278 q 308 1297 303 1289 q 322 1316 314 1306 q 337 1335 329 1326 q 351 1349 344 1344 q 363 1350 358 1354 m 256 693 q 253 545 253 614 q 267 414 253 476 q 310 303 281 346 q 376 240 339 260 q 452 223 413 219 q 528 249 492 226 q 594 314 565 272 q 638 415 624 356 q 657 544 651 471 q 663 692 663 617 q 657 837 663 767 q 646 957 651 907 q 668 1015 642 993 q 730 1042 694 1038 q 799 1033 765 1047 q 844 981 833 1018 q 873 843 864 917 q 883 695 882 769 q 879 549 885 621 q 864 417 874 478 q 815 258 849 335 q 730 124 782 182 q 606 31 678 65 q 444 -1 535 -4 q 338 18 388 0 q 245 66 288 36 q 169 136 203 96 q 113 222 136 176 q 53 417 69 308 q 38 630 38 525 q 47 823 38 735 q 64 960 56 911 q 85 1003 67 986 q 127 1029 103 1021 q 179 1038 151 1038 q 230 1028 207 1038 q 267 1001 253 1019 q 281 956 282 982 l 256 693 z "},"":{"ha":932,"x_min":38,"x_max":885,"o":"m 567 1354 q 579 1353 572 1358 q 594 1340 586 1349 q 609 1320 601 1331 q 622 1301 617 1310 q 626 1279 629 1288 q 622 1274 625 1275 q 560 1225 589 1249 q 503 1178 532 1201 q 446 1132 475 1156 q 382 1083 417 1108 q 343 1092 360 1074 q 313 1131 326 1110 q 306 1163 300 1150 q 313 1174 307 1168 q 378 1222 347 1200 q 439 1265 408 1244 q 500 1308 469 1286 q 567 1354 531 1329 m 256 693 q 253 545 253 614 q 267 414 253 476 q 310 303 281 346 q 376 240 339 260 q 452 223 413 219 q 528 249 492 226 q 594 314 565 272 q 638 415 624 356 q 657 544 651 471 q 663 692 663 617 q 657 837 663 767 q 646 957 651 907 q 668 1015 642 993 q 730 1042 694 1038 q 799 1033 765 1047 q 844 981 833 1018 q 873 843 864 917 q 883 695 882 769 q 879 549 885 621 q 864 417 874 478 q 815 258 849 335 q 730 124 782 182 q 606 31 678 65 q 444 -1 535 -4 q 338 18 388 0 q 245 66 288 36 q 169 136 203 96 q 113 222 136 176 q 53 417 69 308 q 38 630 38 525 q 47 823 38 735 q 64 960 56 911 q 85 1003 67 986 q 127 1029 103 1021 q 179 1038 151 1038 q 230 1028 207 1038 q 267 1001 253 1019 q 281 956 282 982 l 256 693 z "},"":{"ha":932,"x_min":38,"x_max":885,"o":"m 668 1138 q 667 1126 668 1132 q 660 1115 664 1121 q 646 1101 657 1108 q 603 1076 625 1088 q 568 1078 581 1065 q 560 1094 565 1082 q 546 1126 554 1107 q 528 1167 538 1144 q 510 1213 519 1190 q 474 1165 493 1189 q 440 1121 456 1140 q 406 1076 422 1097 q 370 1072 394 1067 q 322 1090 346 1078 q 284 1119 299 1103 q 276 1150 269 1136 l 415 1374 q 482 1375 451 1375 q 529 1373 507 1375 q 554 1368 551 1371 l 668 1138 m 256 693 q 253 545 253 614 q 267 414 253 476 q 310 303 281 346 q 376 240 339 260 q 452 223 413 219 q 528 249 492 226 q 594 314 565 272 q 638 415 624 356 q 657 544 651 471 q 663 692 663 617 q 657 837 663 767 q 646 957 651 907 q 668 1015 642 993 q 730 1042 694 1038 q 799 1033 765 1047 q 844 981 833 1018 q 873 843 864 917 q 883 695 882 769 q 879 549 885 621 q 864 417 874 478 q 815 258 849 335 q 730 124 782 182 q 606 31 678 65 q 444 -1 535 -4 q 338 18 388 0 q 245 66 288 36 q 169 136 203 96 q 113 222 136 176 q 53 417 69 308 q 38 630 38 525 q 47 823 38 735 q 64 960 56 911 q 85 1003 67 986 q 127 1029 103 1021 q 179 1038 151 1038 q 230 1028 207 1038 q 267 1001 253 1019 q 281 956 282 982 l 256 693 z "},"":{"ha":932,"x_min":38,"x_max":885,"o":"m 450 1165 q 424 1103 450 1129 q 360 1076 397 1076 q 296 1103 322 1076 q 269 1165 269 1129 q 296 1230 269 1203 q 360 1257 322 1257 q 424 1230 397 1257 q 450 1165 450 1203 m 663 1165 q 636 1103 663 1129 q 572 1076 610 1076 q 508 1103 535 1076 q 482 1165 482 1129 q 508 1230 482 1203 q 572 1257 535 1257 q 636 1230 610 1257 q 663 1165 663 1203 m 256 693 q 253 545 253 614 q 267 414 253 476 q 310 303 281 346 q 376 240 339 260 q 452 223 413 219 q 528 249 492 226 q 594 314 565 272 q 638 415 624 356 q 657 544 651 471 q 663 692 663 617 q 657 837 663 767 q 646 957 651 907 q 668 1015 642 993 q 730 1042 694 1038 q 799 1033 765 1047 q 844 981 833 1018 q 873 843 864 917 q 883 695 882 769 q 879 549 885 621 q 864 417 874 478 q 815 258 849 335 q 730 124 782 182 q 606 31 678 65 q 444 -1 535 -4 q 338 18 388 0 q 245 66 288 36 q 169 136 203 96 q 113 222 136 176 q 53 417 69 308 q 38 630 38 525 q 47 823 38 735 q 64 960 56 911 q 85 1003 67 986 q 127 1029 103 1021 q 179 1038 151 1038 q 230 1028 207 1038 q 267 1001 253 1019 q 281 956 282 982 l 256 693 z "},"":{"ha":782,"x_min":35,"x_max":738,"o":"m 492 1357 q 504 1356 497 1361 q 519 1342 511 1351 q 534 1323 526 1333 q 547 1304 542 1313 q 551 1282 554 1290 q 547 1276 550 1278 q 485 1228 514 1251 q 428 1181 457 1204 q 371 1135 400 1158 q 307 1086 342 1111 q 268 1094 285 1076 q 238 1133 251 1113 q 231 1165 225 1153 q 238 1176 232 1171 q 303 1225 272 1203 q 364 1268 333 1247 q 425 1310 394 1289 q 492 1357 456 1332 m 586 1039 q 631 1039 606 1039 q 681 1035 657 1039 q 721 1021 704 1031 q 738 990 738 1011 q 735 790 736 865 q 733 670 735 714 q 731 603 732 626 q 728 563 729 581 q 699 388 719 471 q 636 233 678 304 q 530 104 594 161 q 369 10 465 47 q 313 -4 349 3 q 238 -12 276 -11 q 165 -3 200 -12 q 113 35 131 7 q 94 89 100 54 q 90 157 88 124 q 107 213 93 190 q 146 232 121 236 q 236 227 185 225 q 336 245 288 229 q 424 292 385 261 q 479 376 464 324 q 314 351 386 344 q 190 394 242 357 q 103 494 138 432 q 52 637 69 557 q 35 808 35 717 q 49 993 35 899 q 67 1031 51 1015 q 106 1042 82 1046 q 150 1039 124 1040 q 199 1033 176 1038 q 238 1019 222 1028 q 254 996 254 1010 q 252 976 253 985 q 250 956 251 967 q 244 869 247 922 q 247 763 242 817 q 269 660 251 708 q 322 585 286 611 q 383 563 350 565 q 446 576 415 560 q 502 631 476 593 q 540 729 528 668 q 548 796 547 761 q 547 865 549 831 q 543 930 546 899 q 540 986 540 961 q 544 1013 539 1001 q 558 1030 549 1022 q 586 1039 567 1038 z "},"":{"ha":806,"x_min":47,"x_max":756,"o":"m 415 1085 q 483 1038 451 1060 q 544 996 514 1017 q 606 953 575 975 q 671 904 636 931 q 676 893 674 899 q 678 880 678 888 q 671 861 678 872 q 642 822 658 840 q 603 814 625 804 q 538 862 567 839 q 480 908 508 885 q 423 955 451 931 q 361 1004 394 979 q 357 1010 358 1006 q 356 1018 356 1013 q 361 1032 356 1024 q 374 1051 367 1040 q 390 1070 382 1061 q 404 1084 397 1079 q 415 1085 411 1089 m 756 717 q 738 383 742 549 q 746 49 735 217 q 738 26 744 38 q 717 8 731 17 q 681 -4 704 -1 q 636 -10 660 -7 q 592 -10 613 -12 q 554 -1 571 -8 q 529 21 538 6 q 468 8 499 14 q 406 -1 438 1 q 242 24 313 -10 q 128 117 172 57 q 65 254 83 176 q 58 413 47 332 q 108 568 68 493 q 218 697 147 643 q 387 763 294 750 q 572 750 479 775 q 608 757 583 758 q 653 754 628 756 q 702 749 679 753 q 740 737 725 744 q 756 717 756 729 m 539 549 q 428 564 476 574 q 346 523 379 554 q 294 447 313 492 q 274 356 276 401 q 284 272 271 311 q 328 215 297 233 q 405 205 358 196 q 517 264 451 214 q 521 335 519 300 q 525 407 522 371 q 531 481 528 444 q 539 549 533 517 z "},"":{"ha":806,"x_min":47,"x_max":756,"o":"m 618 1086 q 631 1085 624 1090 q 645 1072 638 1081 q 660 1052 653 1063 q 674 1033 668 1042 q 678 1011 681 1019 q 674 1006 676 1007 q 612 957 640 981 q 555 910 583 933 q 497 864 526 888 q 433 815 468 840 q 394 824 411 806 q 364 863 378 842 q 357 894 351 882 q 364 906 358 900 q 429 954 399 932 q 490 997 460 976 q 551 1040 521 1018 q 618 1086 582 1061 m 756 717 q 738 383 742 549 q 746 49 735 217 q 738 26 744 38 q 717 8 731 17 q 681 -4 704 -1 q 636 -10 660 -7 q 592 -10 613 -12 q 554 -1 571 -8 q 529 21 538 6 q 468 8 499 14 q 406 -1 438 1 q 242 24 313 -10 q 128 117 172 57 q 65 254 83 176 q 58 413 47 332 q 108 568 68 493 q 218 697 147 643 q 387 763 294 750 q 572 750 479 775 q 608 757 583 758 q 653 754 628 756 q 702 749 679 753 q 740 737 725 744 q 756 717 756 729 m 539 549 q 428 564 476 574 q 346 523 379 554 q 294 447 313 492 q 274 356 276 401 q 284 272 271 311 q 328 215 297 233 q 405 205 358 196 q 517 264 451 214 q 521 335 519 300 q 525 407 522 371 q 531 481 528 444 q 539 549 533 517 z "},"":{"ha":806,"x_min":47,"x_max":756,"o":"m 733 867 q 732 856 733 861 q 726 844 729 850 q 711 831 722 838 q 668 806 690 817 q 633 807 646 794 q 625 824 631 811 q 611 855 619 836 q 594 897 603 874 q 575 942 585 919 q 540 894 558 918 q 506 850 521 869 q 471 806 488 826 q 435 801 460 796 q 388 819 411 807 q 349 849 364 832 q 342 879 335 865 l 481 1103 q 547 1104 517 1104 q 594 1102 572 1104 q 619 1097 617 1100 l 733 867 m 756 717 q 738 383 742 549 q 746 49 735 217 q 738 26 744 38 q 717 8 731 17 q 681 -4 704 -1 q 636 -10 660 -7 q 592 -10 613 -12 q 554 -1 571 -8 q 529 21 538 6 q 468 8 499 14 q 406 -1 438 1 q 242 24 313 -10 q 128 117 172 57 q 65 254 83 176 q 58 413 47 332 q 108 568 68 493 q 218 697 147 643 q 387 763 294 750 q 572 750 479 775 q 608 757 583 758 q 653 754 628 756 q 702 749 679 753 q 740 737 725 744 q 756 717 756 729 m 539 549 q 428 564 476 574 q 346 523 379 554 q 294 447 313 492 q 274 356 276 401 q 284 272 271 311 q 328 215 297 233 q 405 205 358 196 q 517 264 451 214 q 521 335 519 300 q 525 407 522 371 q 531 481 528 444 q 539 549 533 517 z "},"":{"ha":806,"x_min":47,"x_max":756,"o":"m 303 881 q 333 974 313 928 q 389 1047 353 1019 q 459 1069 421 1071 q 524 1029 497 1068 q 540 993 535 1011 q 557 956 546 975 q 580 947 567 938 q 596 992 593 957 q 609 1016 596 1008 q 636 1024 622 1024 q 693 1013 672 1024 q 713 967 714 1001 q 696 888 711 925 q 650 833 681 851 q 576 817 617 814 q 511 846 535 819 q 484 881 496 863 q 457 915 472 900 q 440 923 447 925 q 426 913 432 921 q 415 891 419 904 q 407 865 411 878 q 400 851 404 857 q 392 843 396 846 q 369 840 385 839 q 339 846 354 840 q 312 860 324 851 q 303 881 300 869 m 756 717 q 738 383 742 549 q 746 49 735 217 q 738 26 744 38 q 717 8 731 17 q 681 -4 704 -1 q 636 -10 660 -7 q 592 -10 613 -12 q 554 -1 571 -8 q 529 21 538 6 q 468 8 499 14 q 406 -1 438 1 q 242 24 313 -10 q 128 117 172 57 q 65 254 83 176 q 58 413 47 332 q 108 568 68 493 q 218 697 147 643 q 387 763 294 750 q 572 750 479 775 q 608 757 583 758 q 653 754 628 756 q 702 749 679 753 q 740 737 725 744 q 756 717 756 729 m 539 549 q 428 564 476 574 q 346 523 379 554 q 294 447 313 492 q 274 356 276 401 q 284 272 271 311 q 328 215 297 233 q 405 205 358 196 q 517 264 451 214 q 521 335 519 300 q 525 407 522 371 q 531 481 528 444 q 539 549 533 517 z "},"":{"ha":806,"x_min":47,"x_max":756,"o":"m 494 926 q 468 864 494 890 q 404 838 442 838 q 340 864 367 838 q 314 926 314 890 q 340 991 314 964 q 404 1018 367 1018 q 468 991 442 1018 q 494 926 494 964 m 707 926 q 681 864 707 890 q 617 838 654 838 q 553 864 579 838 q 526 926 526 890 q 553 991 526 964 q 617 1018 579 1018 q 681 991 654 1018 q 707 926 707 964 m 756 717 q 738 383 742 549 q 746 49 735 217 q 738 26 744 38 q 717 8 731 17 q 681 -4 704 -1 q 636 -10 660 -7 q 592 -10 613 -12 q 554 -1 571 -8 q 529 21 538 6 q 468 8 499 14 q 406 -1 438 1 q 242 24 313 -10 q 128 117 172 57 q 65 254 83 176 q 58 413 47 332 q 108 568 68 493 q 218 697 147 643 q 387 763 294 750 q 572 750 479 775 q 608 757 583 758 q 653 754 628 756 q 702 749 679 753 q 740 737 725 744 q 756 717 756 729 m 539 549 q 428 564 476 574 q 346 523 379 554 q 294 447 313 492 q 274 356 276 401 q 284 272 271 311 q 328 215 297 233 q 405 205 358 196 q 517 264 451 214 q 521 335 519 300 q 525 407 522 371 q 531 481 528 444 q 539 549 533 517 z "},"":{"ha":806,"x_min":47,"x_max":756,"o":"m 542 814 q 489 825 514 814 q 445 855 464 836 q 416 899 426 874 q 406 951 406 924 q 445 1048 406 1008 q 542 1088 485 1088 q 640 1048 600 1088 q 679 951 679 1008 q 669 899 679 924 q 640 855 658 874 q 596 825 621 836 q 542 814 571 814 m 542 993 q 513 981 525 993 q 500 951 500 969 q 513 921 500 933 q 542 908 525 908 q 572 921 560 908 q 585 951 585 933 q 572 981 585 969 q 542 993 560 993 m 756 717 q 738 383 742 549 q 746 49 735 217 q 738 26 744 38 q 717 8 731 17 q 681 -4 704 -1 q 636 -10 660 -7 q 592 -10 613 -12 q 554 -1 571 -8 q 529 21 538 6 q 468 8 499 14 q 406 -1 438 1 q 242 24 313 -10 q 128 117 172 57 q 65 254 83 176 q 58 413 47 332 q 108 568 68 493 q 218 697 147 643 q 387 763 294 750 q 572 750 479 775 q 608 757 583 758 q 653 754 628 756 q 702 749 679 753 q 740 737 725 744 q 756 717 756 729 m 539 549 q 428 564 476 574 q 346 523 379 554 q 294 447 313 492 q 274 356 276 401 q 284 272 271 311 q 328 215 297 233 q 405 205 358 196 q 517 264 451 214 q 521 335 519 300 q 525 407 522 371 q 531 481 528 444 q 539 549 533 517 z "},"":{"ha":740,"x_min":36,"x_max":697,"o":"m 267 1092 q 334 1045 303 1067 q 396 1003 365 1024 q 457 960 426 982 q 522 911 488 938 q 528 900 525 906 q 529 887 529 894 q 522 868 529 879 q 493 829 510 847 q 454 821 476 811 q 389 869 418 846 q 331 915 360 892 q 274 962 303 938 q 213 1011 246 986 q 208 1017 210 1013 q 207 1025 207 1019 q 213 1039 207 1031 q 226 1058 218 1047 q 241 1077 233 1068 q 256 1091 249 1086 q 267 1092 263 1096 m 285 740 q 447 752 369 765 q 580 695 524 739 q 667 578 636 651 q 688 413 697 506 q 678 382 685 394 q 656 367 671 369 q 626 363 649 364 q 573 361 604 361 q 504 362 542 361 q 429 364 467 363 q 333 368 378 367 q 261 372 289 369 q 266 307 260 339 q 288 249 272 275 q 328 207 303 224 q 390 188 353 190 q 449 199 419 185 q 501 246 478 213 q 547 279 519 274 q 601 274 575 285 q 646 240 628 264 q 664 186 664 217 q 644 117 664 149 q 593 62 624 86 q 526 21 563 38 q 456 -1 489 4 q 371 -8 414 -10 q 288 6 328 -6 q 140 103 199 33 q 58 260 82 174 q 46 431 36 340 q 101 596 56 521 q 178 683 133 644 q 285 740 222 721 m 289 508 q 488 513 388 508 q 455 578 481 558 q 398 596 429 599 q 336 570 367 593 q 289 508 306 547 z "},"":{"ha":740,"x_min":36,"x_max":697,"o":"m 471 1078 q 483 1077 476 1082 q 498 1063 490 1072 q 513 1044 506 1054 q 526 1025 521 1033 q 531 1003 533 1011 q 526 997 529 999 q 465 949 493 972 q 408 902 436 925 q 350 856 379 879 q 286 807 321 832 q 247 815 264 797 q 217 854 231 833 q 210 886 204 874 q 217 897 211 892 q 282 946 251 924 q 343 989 313 968 q 404 1031 374 1010 q 471 1078 435 1053 m 285 740 q 447 752 369 765 q 580 695 524 739 q 667 578 636 651 q 688 413 697 506 q 678 382 685 394 q 656 367 671 369 q 626 363 649 364 q 573 361 604 361 q 504 362 542 361 q 429 364 467 363 q 333 368 378 367 q 261 372 289 369 q 266 307 260 339 q 288 249 272 275 q 328 207 303 224 q 390 188 353 190 q 449 199 419 185 q 501 246 478 213 q 547 279 519 274 q 601 274 575 285 q 646 240 628 264 q 664 186 664 217 q 644 117 664 149 q 593 62 624 86 q 526 21 563 38 q 456 -1 489 4 q 371 -8 414 -10 q 288 6 328 -6 q 140 103 199 33 q 58 260 82 174 q 46 431 36 340 q 101 596 56 521 q 178 683 133 644 q 285 740 222 721 m 289 508 q 488 513 388 508 q 455 578 481 558 q 398 596 429 599 q 336 570 367 593 q 289 508 306 547 z "},"":{"ha":740,"x_min":36,"x_max":697,"o":"m 572 857 q 571 846 572 851 q 565 834 568 840 q 550 821 561 828 q 507 796 529 807 q 472 797 485 785 q 464 814 469 801 q 450 845 458 826 q 433 887 442 864 q 414 932 424 910 q 378 884 397 908 q 344 840 360 860 q 310 796 326 817 q 274 792 299 786 q 226 810 250 797 q 188 839 203 822 q 181 869 174 856 l 319 1093 q 386 1094 356 1094 q 433 1092 411 1094 q 458 1088 456 1090 l 572 857 m 285 740 q 447 752 369 765 q 580 695 524 739 q 667 578 636 651 q 688 413 697 506 q 678 382 685 394 q 656 367 671 369 q 626 363 649 364 q 573 361 604 361 q 504 362 542 361 q 429 364 467 363 q 333 368 378 367 q 261 372 289 369 q 266 307 260 339 q 288 249 272 275 q 328 207 303 224 q 390 188 353 190 q 449 199 419 185 q 501 246 478 213 q 547 279 519 274 q 601 274 575 285 q 646 240 628 264 q 664 186 664 217 q 644 117 664 149 q 593 62 624 86 q 526 21 563 38 q 456 -1 489 4 q 371 -8 414 -10 q 288 6 328 -6 q 140 103 199 33 q 58 260 82 174 q 46 431 36 340 q 101 596 56 521 q 178 683 133 644 q 285 740 222 721 m 289 508 q 488 513 388 508 q 455 578 481 558 q 398 596 429 599 q 336 570 367 593 q 289 508 306 547 z "},"":{"ha":740,"x_min":36,"x_max":697,"o":"m 354 888 q 328 825 354 851 q 264 799 301 799 q 200 825 226 799 q 174 888 174 851 q 200 952 174 925 q 264 979 226 979 q 328 952 301 979 q 354 888 354 925 m 567 888 q 540 825 567 851 q 476 799 514 799 q 413 825 439 799 q 386 888 386 851 q 413 952 386 925 q 476 979 439 979 q 540 952 514 979 q 567 888 567 925 m 285 740 q 447 752 369 765 q 580 695 524 739 q 667 578 636 651 q 688 413 697 506 q 678 382 685 394 q 656 367 671 369 q 626 363 649 364 q 573 361 604 361 q 504 362 542 361 q 429 364 467 363 q 333 368 378 367 q 261 372 289 369 q 266 307 260 339 q 288 249 272 275 q 328 207 303 224 q 390 188 353 190 q 449 199 419 185 q 501 246 478 213 q 547 279 519 274 q 601 274 575 285 q 646 240 628 264 q 664 186 664 217 q 644 117 664 149 q 593 62 624 86 q 526 21 563 38 q 456 -1 489 4 q 371 -8 414 -10 q 288 6 328 -6 q 140 103 199 33 q 58 260 82 174 q 46 431 36 340 q 101 596 56 521 q 178 683 133 644 q 285 740 222 721 m 289 508 q 488 513 388 508 q 455 578 481 558 q 398 596 429 599 q 336 570 367 593 q 289 508 306 547 z "},"":{"ha":332,"x_min":4,"x_max":326,"o":"m 275 700 q 273 542 274 626 q 272 370 272 457 q 273 199 272 283 q 276 43 274 115 q 267 24 274 33 q 247 7 260 15 q 210 -4 233 -1 q 160 -8 186 -7 q 113 -6 135 -8 q 74 7 90 -3 q 54 36 58 17 q 51 76 51 46 q 51 150 50 107 q 53 245 51 193 q 60 350 56 297 q 66 464 63 403 q 72 578 69 525 q 81 700 76 639 q 85 714 79 708 q 98 723 89 719 q 126 726 107 726 q 171 726 146 726 q 219 724 196 726 q 258 717 242 722 q 275 700 275 711 m 64 1038 q 131 991 100 1013 q 193 949 163 969 q 254 906 224 928 q 319 857 285 883 q 325 846 322 851 q 326 833 326 840 q 319 814 326 825 q 290 775 307 793 q 251 767 274 757 q 186 815 215 792 q 128 860 157 838 q 72 908 100 883 q 10 957 43 932 q 6 963 7 958 q 4 971 4 965 q 10 985 4 976 q 23 1003 15 993 q 38 1023 31 1014 q 53 1037 46 1032 q 64 1038 60 1042 z "},"":{"ha":332,"x_min":1,"x_max":331,"o":"m 275 700 q 273 542 274 626 q 272 370 272 457 q 273 199 272 283 q 276 43 274 115 q 267 24 274 33 q 247 7 260 15 q 210 -4 233 -1 q 160 -8 186 -7 q 113 -6 135 -8 q 74 7 90 -3 q 54 36 58 17 q 51 76 51 46 q 51 150 50 107 q 53 245 51 193 q 60 350 56 297 q 66 464 63 403 q 72 578 69 525 q 81 700 76 639 q 85 714 79 708 q 98 723 89 719 q 126 726 107 726 q 171 726 146 726 q 219 724 196 726 q 258 717 242 722 q 275 700 275 711 m 268 1038 q 281 1037 274 1042 q 295 1023 288 1032 q 310 1003 303 1014 q 324 985 318 993 q 328 963 331 971 q 324 957 326 958 q 262 908 290 932 q 205 862 233 885 q 147 815 176 839 q 83 767 118 792 q 44 775 61 757 q 14 814 28 793 q 7 846 1 833 q 14 857 8 851 q 79 906 49 883 q 140 949 110 928 q 201 991 171 969 q 268 1038 232 1013 z "},"":{"ha":332,"x_min":-29,"x_max":369,"o":"m 275 700 q 273 542 274 626 q 272 370 272 457 q 273 199 272 283 q 276 43 274 115 q 267 24 274 33 q 247 7 260 15 q 210 -4 233 -1 q 160 -8 186 -7 q 113 -6 135 -8 q 74 7 90 -3 q 54 36 58 17 q 51 76 51 46 q 51 150 50 107 q 53 245 51 193 q 60 350 56 297 q 66 464 63 403 q 72 578 69 525 q 81 700 76 639 q 85 714 79 708 q 98 723 89 719 q 126 726 107 726 q 171 726 146 726 q 219 724 196 726 q 258 717 242 722 q 275 700 275 711 m 369 854 q 368 843 369 849 q 362 831 365 838 q 347 818 358 825 q 304 793 326 804 q 269 794 282 782 q 261 811 267 799 q 247 842 256 824 q 230 884 239 861 q 211 929 221 907 q 176 881 194 906 q 142 838 157 857 q 107 793 124 814 q 72 789 96 783 q 24 807 47 794 q -15 836 0 819 q -22 867 -29 853 l 117 1090 q 183 1092 153 1092 q 231 1090 208 1092 q 256 1085 253 1088 l 369 854 z "},"":{"ha":332,"x_min":-31,"x_max":363,"o":"m 275 700 q 273 542 274 626 q 272 370 272 457 q 273 199 272 283 q 276 43 274 115 q 267 24 274 33 q 247 7 260 15 q 210 -4 233 -1 q 160 -8 186 -7 q 113 -6 135 -8 q 74 7 90 -3 q 54 36 58 17 q 51 76 51 46 q 51 150 50 107 q 53 245 51 193 q 60 350 56 297 q 66 464 63 403 q 72 578 69 525 q 81 700 76 639 q 85 714 79 708 q 98 723 89 719 q 126 726 107 726 q 171 726 146 726 q 219 724 196 726 q 258 717 242 722 q 275 700 275 711 m 150 888 q 124 825 150 851 q 60 799 97 799 q -4 825 22 799 q -31 888 -31 851 q -4 952 -31 925 q 60 979 22 979 q 124 952 97 979 q 150 888 150 925 m 363 888 q 336 825 363 851 q 272 799 310 799 q 208 825 235 799 q 182 888 182 851 q 208 952 182 925 q 272 979 235 979 q 336 952 310 979 q 363 888 363 925 z "},"":{"ha":835,"x_min":40,"x_max":778,"o":"m 214 881 q 244 974 224 928 q 300 1047 264 1019 q 370 1069 332 1071 q 435 1029 408 1068 q 451 993 446 1011 q 468 956 457 975 q 491 947 478 938 q 507 992 504 957 q 520 1016 507 1008 q 547 1024 533 1024 q 604 1013 583 1024 q 624 967 625 1001 q 607 888 622 925 q 561 833 592 851 q 487 817 528 814 q 422 846 446 819 q 395 881 407 863 q 368 915 383 900 q 351 923 358 925 q 337 913 343 921 q 326 891 331 904 q 318 865 322 878 q 311 851 315 857 q 303 843 307 846 q 281 840 296 839 q 250 846 265 840 q 223 860 235 851 q 214 881 211 869 m 258 704 q 376 737 311 726 q 504 740 440 747 q 624 703 568 732 q 717 617 681 674 q 763 497 747 568 q 778 321 778 425 l 775 94 q 774 68 775 83 q 765 38 772 53 q 744 10 758 22 q 707 -4 731 -1 q 628 -8 669 -10 q 564 24 586 -6 q 547 67 551 40 q 541 124 542 93 q 542 184 540 154 q 547 236 544 214 q 557 331 553 285 q 554 419 561 376 q 522 498 546 465 q 467 545 499 531 q 402 556 436 560 q 338 528 368 553 q 288 457 308 504 q 263 339 267 410 l 267 47 q 257 24 264 35 q 237 6 250 14 q 200 -4 224 -1 q 149 -8 175 -7 q 101 -3 124 -8 q 63 13 78 1 q 43 47 47 25 q 40 108 40 56 q 42 234 40 160 q 47 393 44 308 q 53 552 50 478 q 58 678 56 626 q 61 740 61 731 q 65 756 60 749 q 79 767 69 763 q 108 774 89 772 q 152 776 126 775 q 201 775 178 776 q 242 768 225 774 q 258 750 258 763 l 258 704 z "},"":{"ha":761,"x_min":31,"x_max":728,"o":"m 278 1060 q 345 1013 314 1035 q 407 971 376 992 q 468 928 438 950 q 533 879 499 906 q 539 868 536 874 q 540 855 540 863 q 533 836 540 847 q 504 797 521 815 q 465 789 488 779 q 400 837 429 814 q 342 883 371 860 q 285 930 314 906 q 224 979 257 954 q 219 985 221 981 q 218 993 218 988 q 224 1007 218 999 q 237 1026 229 1015 q 252 1045 244 1036 q 267 1059 260 1054 q 278 1060 274 1064 m 379 -10 q 244 21 307 -10 q 133 103 181 51 q 58 225 86 156 q 31 374 31 294 q 58 522 31 453 q 133 644 86 592 q 244 726 181 696 q 379 756 307 756 q 515 726 451 756 q 625 644 578 696 q 700 522 672 592 q 728 374 728 453 q 700 225 728 294 q 625 103 672 156 q 515 21 578 51 q 379 -10 451 -10 m 379 550 q 320 536 347 550 q 274 498 293 522 q 242 442 254 474 q 231 374 231 410 q 242 305 231 338 q 274 249 254 272 q 320 211 293 225 q 379 197 347 197 q 438 211 410 197 q 485 249 465 225 q 517 305 506 272 q 529 374 529 338 q 517 442 529 410 q 485 498 506 474 q 438 536 465 522 q 379 550 410 550 z "},"":{"ha":761,"x_min":31,"x_max":728,"o":"m 482 1088 q 494 1087 488 1092 q 509 1073 501 1082 q 524 1053 517 1064 q 538 1035 532 1043 q 542 1013 544 1021 q 538 1007 540 1008 q 476 958 504 982 q 419 912 447 935 q 361 865 390 889 q 297 817 332 842 q 258 825 275 807 q 228 864 242 843 q 221 896 215 883 q 228 907 222 901 q 293 956 263 933 q 354 999 324 978 q 415 1041 385 1019 q 482 1088 446 1063 m 379 -10 q 244 21 307 -10 q 133 103 181 51 q 58 225 86 156 q 31 374 31 294 q 58 522 31 453 q 133 644 86 592 q 244 726 181 696 q 379 756 307 756 q 515 726 451 756 q 625 644 578 696 q 700 522 672 592 q 728 374 728 453 q 700 225 728 294 q 625 103 672 156 q 515 21 578 51 q 379 -10 451 -10 m 379 550 q 320 536 347 550 q 274 498 293 522 q 242 442 254 474 q 231 374 231 410 q 242 305 231 338 q 274 249 254 272 q 320 211 293 225 q 379 197 347 197 q 438 211 410 197 q 485 249 465 225 q 517 305 506 272 q 529 374 529 338 q 517 442 529 410 q 485 498 506 474 q 438 536 465 522 q 379 550 410 550 z "},"":{"ha":761,"x_min":31,"x_max":728,"o":"m 583 861 q 582 850 583 856 q 576 838 579 844 q 561 825 572 832 q 518 800 540 811 q 483 801 496 789 q 475 818 481 806 q 461 849 469 831 q 444 891 453 868 q 425 936 435 914 q 390 888 408 913 q 356 844 371 864 q 321 800 338 821 q 285 796 310 790 q 238 814 261 801 q 199 843 214 826 q 192 874 185 860 l 331 1097 q 397 1099 367 1099 q 444 1097 422 1099 q 469 1092 467 1094 l 583 861 m 379 -10 q 244 21 307 -10 q 133 103 181 51 q 58 225 86 156 q 31 374 31 294 q 58 522 31 453 q 133 644 86 592 q 244 726 181 696 q 379 756 307 756 q 515 726 451 756 q 625 644 578 696 q 700 522 672 592 q 728 374 728 453 q 700 225 728 294 q 625 103 672 156 q 515 21 578 51 q 379 -10 451 -10 m 379 550 q 320 536 347 550 q 274 498 293 522 q 242 442 254 474 q 231 374 231 410 q 242 305 231 338 q 274 249 254 272 q 320 211 293 225 q 379 197 347 197 q 438 211 410 197 q 485 249 465 225 q 517 305 506 272 q 529 374 529 338 q 517 442 529 410 q 485 498 506 474 q 438 536 465 522 q 379 550 410 550 z "},"":{"ha":761,"x_min":31,"x_max":728,"o":"m 178 843 q 208 936 188 890 q 264 1010 228 982 q 334 1032 296 1033 q 399 992 372 1031 q 415 956 410 974 q 432 918 421 938 q 455 910 442 900 q 471 954 468 919 q 484 978 471 971 q 511 986 497 986 q 568 975 547 986 q 588 929 589 964 q 571 851 586 888 q 525 796 556 814 q 451 779 492 776 q 386 808 410 782 q 359 844 371 825 q 332 878 347 863 q 315 885 322 888 q 301 875 307 883 q 290 853 294 867 q 282 828 286 840 q 275 814 279 819 q 267 806 271 808 q 244 802 260 801 q 214 808 229 803 q 187 823 199 814 q 178 843 175 832 m 379 -10 q 244 21 307 -10 q 133 103 181 51 q 58 225 86 156 q 31 374 31 294 q 58 522 31 453 q 133 644 86 592 q 244 726 181 696 q 379 756 307 756 q 515 726 451 756 q 625 644 578 696 q 700 522 672 592 q 728 374 728 453 q 700 225 728 294 q 625 103 672 156 q 515 21 578 51 q 379 -10 451 -10 m 379 550 q 320 536 347 550 q 274 498 293 522 q 242 442 254 474 q 231 374 231 410 q 242 305 231 338 q 274 249 254 272 q 320 211 293 225 q 379 197 347 197 q 438 211 410 197 q 485 249 465 225 q 517 305 506 272 q 529 374 529 338 q 517 442 529 410 q 485 498 506 474 q 438 536 465 522 q 379 550 410 550 z "},"":{"ha":761,"x_min":31,"x_max":728,"o":"m 364 888 q 338 825 364 851 q 274 799 311 799 q 210 825 236 799 q 183 888 183 851 q 210 952 183 925 q 274 979 236 979 q 338 952 311 979 q 364 888 364 925 m 576 888 q 550 825 576 851 q 486 799 524 799 q 422 825 449 799 q 396 888 396 851 q 422 952 396 925 q 486 979 449 979 q 550 952 524 979 q 576 888 576 925 m 379 -10 q 244 21 307 -10 q 133 103 181 51 q 58 225 86 156 q 31 374 31 294 q 58 522 31 453 q 133 644 86 592 q 244 726 181 696 q 379 756 307 756 q 515 726 451 756 q 625 644 578 696 q 700 522 672 592 q 728 374 728 453 q 700 225 728 294 q 625 103 672 156 q 515 21 578 51 q 379 -10 451 -10 m 379 550 q 320 536 347 550 q 274 498 293 522 q 242 442 254 474 q 231 374 231 410 q 242 305 231 338 q 274 249 254 272 q 320 211 293 225 q 379 197 347 197 q 438 211 410 197 q 485 249 465 225 q 517 305 506 272 q 529 374 529 338 q 517 442 529 410 q 485 498 506 474 q 438 536 465 522 q 379 550 410 550 z "},"":{"ha":782,"x_min":39,"x_max":735,"o":"m 388 917 q 361 854 388 881 q 297 828 335 828 q 233 854 260 828 q 207 917 207 881 q 233 981 207 954 q 297 1008 260 1008 q 361 981 335 1008 q 388 917 388 954 m 600 917 q 574 854 600 881 q 510 828 547 828 q 446 854 472 828 q 419 917 419 881 q 446 981 419 954 q 510 1008 472 1008 q 574 981 547 1008 q 600 917 600 954 m 581 768 q 626 770 600 769 q 674 767 651 771 q 714 751 697 763 q 732 717 731 740 q 734 417 733 542 q 734 206 735 292 q 733 67 733 121 q 729 -18 732 14 q 723 -68 726 -50 q 715 -101 719 -86 q 678 -186 701 -146 q 621 -258 654 -226 q 544 -313 588 -290 q 447 -346 500 -336 q 302 -349 379 -357 q 157 -303 225 -342 q 122 -252 129 -287 q 122 -182 114 -217 q 153 -123 131 -147 q 210 -104 176 -99 q 288 -126 240 -115 q 383 -133 336 -136 q 469 -104 431 -129 q 519 -19 507 -79 q 525 31 524 4 q 526 87 526 58 q 524 144 525 115 q 525 200 524 174 q 417 129 476 146 q 297 125 357 113 q 163 189 215 143 q 83 298 111 235 q 47 436 56 361 q 46 588 39 511 q 53 658 49 624 q 61 726 57 693 q 74 746 65 738 q 93 759 81 753 q 125 764 106 765 q 169 762 143 763 q 217 757 194 761 q 256 744 240 753 q 272 721 272 736 q 265 653 269 688 q 258 583 261 618 q 253 512 254 547 q 258 442 253 476 q 288 351 265 382 q 340 311 310 319 q 402 315 369 303 q 463 356 435 328 q 509 424 490 383 q 531 513 528 464 q 533 591 532 556 q 535 651 533 626 q 536 704 536 681 q 539 735 533 721 q 551 756 542 746 q 581 768 561 765 z "},"":{"ha":782,"x_min":39,"x_max":735,"o":"m 514 1079 q 526 1078 519 1083 q 541 1065 533 1074 q 556 1045 549 1056 q 569 1026 564 1035 q 574 1004 576 1013 q 569 999 572 1000 q 508 950 536 974 q 451 903 479 926 q 393 857 422 881 q 329 808 364 833 q 290 817 307 799 q 260 856 274 835 q 253 888 247 875 q 260 899 254 893 q 325 947 294 925 q 386 990 356 969 q 447 1033 417 1011 q 514 1079 478 1054 m 581 768 q 626 770 600 769 q 674 767 651 771 q 714 751 697 763 q 732 717 731 740 q 734 417 733 542 q 734 206 735 292 q 733 67 733 121 q 729 -18 732 14 q 723 -68 726 -50 q 715 -101 719 -86 q 678 -186 701 -146 q 621 -258 654 -226 q 544 -313 588 -290 q 447 -346 500 -336 q 302 -349 379 -357 q 157 -303 225 -342 q 122 -252 129 -287 q 122 -182 114 -217 q 153 -123 131 -147 q 210 -104 176 -99 q 288 -126 240 -115 q 383 -133 336 -136 q 469 -104 431 -129 q 519 -19 507 -79 q 525 31 524 4 q 526 87 526 58 q 524 144 525 115 q 525 200 524 174 q 417 129 476 146 q 297 125 357 113 q 163 189 215 143 q 83 298 111 235 q 47 436 56 361 q 46 588 39 511 q 53 658 49 624 q 61 726 57 693 q 74 746 65 738 q 93 759 81 753 q 125 764 106 765 q 169 762 143 763 q 217 757 194 761 q 256 744 240 753 q 272 721 272 736 q 265 653 269 688 q 258 583 261 618 q 253 512 254 547 q 258 442 253 476 q 288 351 265 382 q 340 311 310 319 q 402 315 369 303 q 463 356 435 328 q 509 424 490 383 q 531 513 528 464 q 533 591 532 556 q 535 651 533 626 q 536 704 536 681 q 539 735 533 721 q 551 756 542 746 q 581 768 561 765 z "},"":{"ha":779,"x_min":49,"x_max":735,"o":"m 374 900 q 347 838 374 864 q 283 811 321 811 q 219 838 246 811 q 193 900 193 864 q 219 965 193 938 q 283 992 246 992 q 347 965 321 992 q 374 900 374 938 m 586 900 q 560 838 586 864 q 496 811 533 811 q 432 838 458 811 q 406 900 406 864 q 432 965 406 938 q 496 992 458 992 q 560 965 533 992 q 586 900 586 938 m 735 724 q 717 386 721 554 q 717 47 713 218 q 708 25 715 35 q 688 8 701 17 q 650 -4 674 -1 q 603 -8 628 -7 q 558 -6 579 -10 q 519 7 536 -3 q 497 36 503 17 q 308 -4 390 -18 q 168 67 225 10 q 81 210 111 124 q 50 388 51 296 q 56 550 49 468 q 82 714 63 632 q 100 749 86 735 q 138 761 114 763 q 183 757 157 760 q 231 748 208 754 q 268 731 253 742 q 282 700 283 719 q 265 576 271 639 q 258 446 258 514 q 280 297 258 354 q 333 217 301 239 q 399 210 364 194 q 461 282 433 226 q 499 390 488 335 q 516 501 511 444 q 522 616 521 558 q 531 732 524 674 q 539 749 532 742 q 588 763 551 764 q 631 760 606 761 q 680 754 657 758 q 719 743 703 750 q 735 724 735 736 z "},"":{"ha":779,"x_min":49,"x_max":735,"o":"m 592 874 q 590 863 592 868 q 584 851 588 857 q 569 838 581 844 q 526 813 549 824 q 492 814 504 801 q 483 831 489 818 q 469 862 478 843 q 452 903 461 881 q 433 949 443 926 q 398 901 417 925 q 364 857 379 876 q 329 813 346 833 q 294 808 318 803 q 246 826 269 814 q 208 856 222 839 q 200 886 193 872 l 339 1110 q 406 1111 375 1111 q 453 1109 431 1111 q 478 1104 475 1107 l 592 874 m 735 724 q 717 386 721 554 q 717 47 713 218 q 708 25 715 35 q 688 8 701 17 q 650 -4 674 -1 q 603 -8 628 -7 q 558 -6 579 -10 q 519 7 536 -3 q 497 36 503 17 q 308 -4 390 -18 q 168 67 225 10 q 81 210 111 124 q 50 388 51 296 q 56 550 49 468 q 82 714 63 632 q 100 749 86 735 q 138 761 114 763 q 183 757 157 760 q 231 748 208 754 q 268 731 253 742 q 282 700 283 719 q 265 576 271 639 q 258 446 258 514 q 280 297 258 354 q 333 217 301 239 q 399 210 364 194 q 461 282 433 226 q 499 390 488 335 q 516 501 511 444 q 522 616 521 558 q 531 732 524 674 q 539 749 532 742 q 588 763 551 764 q 631 760 606 761 q 680 754 657 758 q 719 743 703 750 q 735 724 735 736 z "},"":{"ha":779,"x_min":49,"x_max":735,"o":"m 490 1090 q 503 1090 496 1094 q 517 1076 510 1085 q 533 1056 525 1067 q 546 1038 540 1046 q 550 1015 553 1024 q 546 1010 549 1011 q 484 961 513 985 q 427 915 456 938 q 369 868 399 892 q 306 819 340 844 q 267 828 283 810 q 236 867 250 846 q 229 899 224 886 q 236 910 231 904 q 301 958 271 936 q 363 1001 332 981 q 424 1044 393 1022 q 490 1090 454 1065 m 735 724 q 717 386 721 554 q 717 47 713 218 q 708 25 715 35 q 688 8 701 17 q 650 -4 674 -1 q 603 -8 628 -7 q 558 -6 579 -10 q 519 7 536 -3 q 497 36 503 17 q 308 -4 390 -18 q 168 67 225 10 q 81 210 111 124 q 50 388 51 296 q 56 550 49 468 q 82 714 63 632 q 100 749 86 735 q 138 761 114 763 q 183 757 157 760 q 231 748 208 754 q 268 731 253 742 q 282 700 283 719 q 265 576 271 639 q 258 446 258 514 q 280 297 258 354 q 333 217 301 239 q 399 210 364 194 q 461 282 433 226 q 499 390 488 335 q 516 501 511 444 q 522 616 521 558 q 531 732 524 674 q 539 749 532 742 q 588 763 551 764 q 631 760 606 761 q 680 754 657 758 q 719 743 703 750 q 735 724 735 736 z "},"":{"ha":779,"x_min":49,"x_max":735,"o":"m 286 1092 q 353 1045 322 1067 q 415 1003 385 1024 q 476 960 446 982 q 542 911 507 938 q 547 900 544 906 q 549 887 549 894 q 542 868 549 879 q 513 829 529 847 q 474 821 496 811 q 408 869 438 846 q 351 915 379 892 q 294 962 322 938 q 232 1011 265 986 q 228 1017 229 1013 q 226 1025 226 1019 q 232 1039 226 1031 q 245 1058 238 1047 q 260 1077 253 1068 q 275 1091 268 1086 q 286 1092 282 1096 m 735 724 q 717 386 721 554 q 717 47 713 218 q 708 25 715 35 q 688 8 701 17 q 650 -4 674 -1 q 603 -8 628 -7 q 558 -6 579 -10 q 519 7 536 -3 q 497 36 503 17 q 308 -4 390 -18 q 168 67 225 10 q 81 210 111 124 q 50 388 51 296 q 56 550 49 468 q 82 714 63 632 q 100 749 86 735 q 138 761 114 763 q 183 757 157 760 q 231 748 208 754 q 268 731 253 742 q 282 700 283 719 q 265 576 271 639 q 258 446 258 514 q 280 297 258 354 q 333 217 301 239 q 399 210 364 194 q 461 282 433 226 q 499 390 488 335 q 516 501 511 444 q 522 616 521 558 q 531 732 524 674 q 539 749 532 742 q 588 763 551 764 q 631 760 606 761 q 680 754 657 758 q 719 743 703 750 q 735 724 735 736 z "},"A":{"ha":849,"x_min":21,"x_max":821,"o":"m 578 1010 q 668 935 631 979 q 731 838 706 890 q 772 726 757 785 q 796 607 788 667 q 818 368 815 489 q 814 125 821 247 q 808 68 811 90 q 798 32 806 46 q 776 10 790 18 q 738 -6 763 1 q 688 -10 714 -8 q 640 4 663 -11 q 606 51 619 18 q 590 147 592 85 l 590 161 q 508 168 556 165 q 410 172 460 171 q 313 172 360 172 q 235 172 267 172 q 231 131 233 160 q 222 72 229 101 q 203 19 215 43 q 171 -6 192 -4 q 126 -8 151 -7 q 78 -3 101 -10 q 38 19 54 3 q 21 72 22 36 q 22 171 21 115 q 28 292 24 226 q 37 410 31 346 q 55 543 43 475 q 85 679 67 611 q 133 808 104 747 q 200 921 161 869 q 293 1007 239 972 q 433 1047 357 1047 q 578 1010 510 1047 m 240 378 q 415 388 328 385 q 589 389 501 392 q 581 565 593 488 q 546 697 568 643 q 493 778 524 750 q 431 807 463 807 q 373 778 403 807 q 317 695 343 750 q 271 560 292 640 q 240 378 250 479 z "},"B":{"ha":775,"x_min":33,"x_max":740,"o":"m 619 535 q 710 417 681 488 q 729 272 740 347 q 663 130 717 188 q 535 39 608 72 q 376 -6 461 6 q 215 -8 290 -17 q 203 -12 208 -11 q 190 -14 197 -12 q 139 -14 165 -15 q 91 -5 113 -12 q 54 20 69 3 q 36 69 39 38 q 35 131 33 85 q 38 244 36 178 q 42 392 40 313 q 46 553 44 472 q 49 765 47 658 q 40 981 50 872 q 43 1003 38 993 q 56 1019 46 1011 q 85 1029 65 1026 q 115 1033 99 1031 q 150 1038 132 1036 q 185 1038 168 1039 q 214 1032 201 1036 q 363 1033 285 1042 q 509 996 440 1024 q 628 922 578 968 q 696 808 679 875 q 704 747 703 779 q 697 681 706 715 q 670 610 689 647 q 619 535 651 574 m 260 617 q 372 631 326 614 q 441 674 418 647 q 463 733 464 701 q 439 790 463 765 q 368 828 415 815 q 249 832 321 842 q 255 725 253 778 q 260 617 257 672 m 264 214 q 390 221 339 206 q 467 263 442 236 q 494 319 493 289 q 469 372 494 350 q 393 402 444 394 q 264 392 342 410 l 264 214 z "},"D":{"ha":747,"x_min":40,"x_max":713,"o":"m 231 1028 q 421 988 338 1025 q 564 892 504 951 q 658 755 624 832 q 703 594 693 678 q 697 424 713 510 q 639 262 681 339 q 528 122 597 185 q 363 19 458 58 q 263 -10 315 0 q 157 -17 210 -19 q 82 3 117 -14 q 42 65 47 19 q 40 128 40 81 q 42 243 40 176 q 45 610 42 426 q 47 988 49 793 q 51 1008 46 999 q 65 1024 56 1017 q 93 1033 74 1031 q 126 1037 107 1035 q 165 1039 146 1039 q 202 1037 185 1039 q 231 1028 219 1035 m 265 226 q 390 304 339 254 q 467 415 440 354 q 496 539 494 475 q 472 660 497 603 q 392 760 446 717 q 253 822 338 804 q 262 525 260 674 q 265 226 264 376 z "},"":{"ha":782,"x_min":35,"x_max":738,"o":"m 408 1200 q 382 1138 408 1164 q 318 1111 356 1111 q 254 1138 281 1111 q 228 1200 228 1164 q 254 1265 228 1238 q 318 1292 281 1292 q 382 1265 356 1292 q 408 1200 408 1238 m 621 1200 q 594 1138 621 1164 q 531 1111 568 1111 q 467 1138 493 1111 q 440 1200 440 1164 q 467 1265 440 1238 q 531 1292 493 1292 q 594 1265 568 1292 q 621 1200 621 1238 m 586 1039 q 631 1039 606 1039 q 681 1035 657 1039 q 721 1021 704 1031 q 738 990 738 1011 q 735 790 736 865 q 733 670 735 714 q 731 603 732 626 q 728 563 729 581 q 699 388 719 471 q 636 233 678 304 q 530 104 594 161 q 369 10 465 47 q 313 -4 349 3 q 238 -12 276 -11 q 165 -3 200 -12 q 113 35 131 7 q 94 89 100 54 q 90 157 88 124 q 107 213 93 190 q 146 232 121 236 q 236 227 185 225 q 336 245 288 229 q 424 292 385 261 q 479 376 464 324 q 314 351 386 344 q 190 394 242 357 q 103 494 138 432 q 52 637 69 557 q 35 808 35 717 q 49 993 35 899 q 67 1031 51 1015 q 106 1042 82 1046 q 150 1039 124 1040 q 199 1033 176 1038 q 238 1019 222 1028 q 254 996 254 1010 q 252 976 253 985 q 250 956 251 967 q 244 869 247 922 q 247 763 242 817 q 269 660 251 708 q 322 585 286 611 q 383 563 350 565 q 446 576 415 560 q 502 631 476 593 q 540 729 528 668 q 548 796 547 761 q 547 865 549 831 q 543 930 546 899 q 540 986 540 961 q 544 1013 539 1001 q 558 1030 549 1022 q 586 1039 567 1038 z "}}}
